<svg viewBox="0 0 134 135" >
<path d="M130.491 42.1364L69.6648 1.58524C67.5852 0.285522 65.2457 0.285522 63.1662 1.58524L2.33949 42.1364C0.779829 43.1761 0 44.9957 0 46.8153V87.3665C0 89.446 0.779829 91.2656 2.33949 92.3054L63.1662 132.857C65.2457 134.156 67.5852 134.156 69.6648 132.857L130.491 92.3054C132.051 91.2656 133.091 89.446 133.091 87.3665V46.8153C133.091 44.9957 132.051 43.1761 130.491 42.1364ZM72.2642 17.1818L116.974 46.8153L96.9588 60.3324L72.2642 43.696V17.1818ZM60.8267 17.1818V43.696L35.8722 60.3324L15.8565 46.8153L60.8267 17.1818ZM11.4375 57.733L25.7344 67.0909L11.4375 76.7088V57.733ZM60.8267 117.26L15.8565 87.3665L35.8722 74.1094L60.8267 90.7457V117.26ZM66.5454 80.608L46.2699 67.0909L66.5454 53.5739L86.5611 67.0909L66.5454 80.608ZM72.2642 117.26V90.7457L96.9588 74.1094L116.974 87.3665L72.2642 117.26ZM121.653 76.7088L107.097 67.0909L121.653 57.733V76.7088Z" />
</svg>
