<svg viewBox="0 0 129 127">
<path d="M42.8906 102.003C42.8906 101.483 42.3707 100.963 41.5909 100.963C40.8111 100.963 40.2912 101.483 40.2912 102.003C40.2912 102.523 40.8111 103.043 41.5909 102.783C42.3707 102.783 42.8906 102.523 42.8906 102.003ZM34.8324 100.703C34.8324 101.223 35.3523 102.003 36.1321 102.003C36.652 102.263 37.4318 102.003 37.6918 101.483C37.6918 100.963 37.4318 100.443 36.652 100.183C35.8722 99.9233 35.0923 100.183 34.8324 100.703ZM46.5298 100.443C45.75 100.443 45.2301 100.963 45.2301 101.743C45.2301 102.263 46.0099 102.523 46.7898 102.263C47.5696 102.003 48.0895 101.743 47.8295 101.223C47.8295 100.703 47.0497 100.183 46.5298 100.443ZM63.4261 0.625011C27.554 0.625011 0 28.179 0 64.0511C0 92.9048 17.9361 117.599 43.9304 126.437C47.3097 126.957 48.3494 124.878 48.3494 123.318C48.3494 121.499 48.3494 112.661 48.3494 107.202C48.3494 107.202 30.1534 111.101 26.2543 99.4034C26.2543 99.4034 23.3949 91.8651 19.2358 90.0455C19.2358 90.0455 13.2571 85.8864 19.4957 85.8864C19.4957 85.8864 25.9943 86.4063 29.6335 92.6449C35.3523 102.783 44.7102 99.9233 48.6094 98.1037C49.1293 93.9446 50.6889 91.0852 52.7685 89.2656C38.2116 87.706 23.3949 85.6264 23.3949 60.6719C23.3949 53.3935 25.4744 50.0142 29.6335 45.3352C28.8537 43.5156 26.7741 36.7571 30.4133 27.6591C35.6122 26.0994 48.3494 34.6776 48.3494 34.6776C53.5483 33.1179 59.0071 32.598 64.4659 32.598C70.1847 32.598 75.6435 33.1179 80.8423 34.6776C80.8423 34.6776 93.3196 25.8395 98.7784 27.6591C102.418 36.7571 100.078 43.5156 99.5582 45.3352C103.717 50.0142 106.317 53.3935 106.317 60.6719C106.317 85.6264 90.9801 87.706 76.4233 89.2656C78.7628 91.3452 80.8423 95.2443 80.8423 101.483C80.8423 110.061 80.5824 120.979 80.5824 123.058C80.5824 124.878 81.8821 126.957 85.2614 126.178C111.256 117.599 128.932 92.9048 128.932 64.0511C128.932 28.179 99.5582 0.625011 63.4261 0.625011ZM25.2145 90.3054C24.6946 90.5653 24.9545 91.3452 25.2145 91.8651C25.7344 92.125 26.2543 92.3849 26.7741 92.125C27.0341 91.8651 27.0341 91.0852 26.5142 90.5653C25.9943 90.3054 25.4744 90.0455 25.2145 90.3054ZM22.3551 88.2259C22.0952 88.7457 22.3551 89.0057 22.875 89.2656C23.3949 89.5256 23.9148 89.5256 24.1747 89.0057C24.1747 88.7457 23.9148 88.4858 23.3949 88.2259C22.875 87.9659 22.6151 87.9659 22.3551 88.2259ZM30.6733 97.5838C30.4133 97.8438 30.4133 98.6236 31.1932 99.1435C31.7131 99.6634 32.4929 99.9233 32.7528 99.4034C33.0128 99.1435 33.0128 98.3636 32.4929 97.8438C31.973 97.3239 31.1932 97.0639 30.6733 97.5838ZM27.8139 93.6847C27.294 93.9446 27.294 94.7244 27.8139 95.2443C28.3338 95.7642 28.8537 96.0241 29.3736 95.7642C29.6335 95.5043 29.6335 94.7244 29.3736 94.2045C28.8537 93.6847 28.3338 93.4247 27.8139 93.6847Z"/>
</svg>
