<svg viewBox="0 0 79 79" xmlns="http://www.w3.org/2000/svg">
<path d="M17.5781 79V26.4414H1.23047V79H17.5781ZM9.31641 19.4102C14.5898 19.4102 18.8086 15.0156 18.8086 9.74219C18.8086 4.64453 14.5898 0.425781 9.31641 0.425781C4.21875 0.425781 0 4.64453 0 9.74219C0 15.0156 4.21875 19.4102 9.31641 19.4102ZM78.5742 79H78.75V50.1719C78.75 36.1094 75.5859 25.2109 59.0625 25.2109C51.1523 25.2109 45.8789 29.6055 43.5938 33.6484H43.418V26.4414H27.7734V79H44.1211V52.9844C44.1211 46.1289 45.3516 39.625 53.7891 39.625C62.2266 39.625 62.4023 47.3594 62.4023 53.5117V79H78.5742Z"/>
</svg>
