<svg width="298" height="298" viewBox="0 0 298 298" fill="none" xmlns="http://www.w3.org/2000/svg">
<rect width="298" height="298" fill="#E5E5E5"/>
<g id="sun">
<path id="Vector" d="M275.497 139.088C272.355 115.021 264.506 90.732 252.431 69.6346C229.992 30.4392 183.206 9.20524 138.981 17.0453C121.633 12.5992 103.207 14.9361 85.9097 20.3736C74.4979 23.9648 63.7895 28.7751 54.5892 36.5241C46.3707 43.4436 40.1309 52.6747 33.9721 61.3898C27.4893 70.5653 22.1099 80.0492 18.0461 90.5448C13.9369 101.152 12.0695 112.366 10.6727 123.6C7.94505 145.466 8.07157 169.613 14.5998 190.832C17.8893 201.52 23.2434 211.358 29.2403 220.726C34.8071 229.415 40.4851 238.131 47.2816 245.925C56.8412 256.891 69.0222 263.087 82.2103 266.795C83.6931 268.57 85.6111 270.098 88.0301 271.266C93.6424 273.988 99.8771 275.819 105.92 277.311C108.789 278.019 111.684 278.611 114.599 279.096C116.056 279.339 117.519 279.541 118.981 279.744C122.979 280.275 123.951 280.406 121.901 280.138C123.642 280.386 125.388 280.619 127.134 280.826C139.198 282.212 150.924 281.59 162.918 279.835C183.307 276.85 203.464 269.769 220.979 258.849C239.703 247.174 254.556 229.683 264.364 209.982C275.381 187.817 278.696 163.538 275.497 139.088Z" fill="#EFBB52"/>
<g id="Group">
<path id="Vector_2" d="M182.968 94.5709C183.545 94.7176 184.021 95.0817 184.021 95.3802C184.021 95.6786 184.375 95.9264 184.805 95.9264C185.473 95.9264 187.391 97.4388 189.487 99.629C190.281 100.459 191.698 100.378 192.629 99.4469C193.672 98.4049 193.616 97.4692 192.391 95.456C191.197 93.4935 189.507 92.6033 186.278 92.2239C185.033 92.0823 183.9 91.7282 183.738 91.4298C182.979 90.0692 178.971 89.0727 178.343 90.0843C178.024 90.5952 178.9 92.7955 179.421 92.7955C179.628 92.7955 180.281 93.1344 180.863 93.5542C181.44 93.9639 182.392 94.4242 182.968 94.5709Z" fill="#231F20"/>
<path id="Vector_3" d="M125.859 93.7971C124.614 94.3889 122.185 95.1021 120.469 95.3803C117.028 95.9367 115.909 96.3818 114.305 97.8284C113.005 99.0019 112.954 99.8719 114.088 101.405C114.725 102.264 115.262 102.563 116.193 102.563C116.881 102.563 117.635 102.33 117.873 102.042C118.111 101.754 119.012 101.308 119.877 101.05C120.742 100.792 121.446 100.449 121.446 100.292C121.446 100.13 122.271 99.7606 123.278 99.4622C124.917 98.9766 125.955 98.2331 129.128 95.2589C131.405 93.1143 129.285 92.1684 125.859 93.7971Z" fill="#231F20"/>
<path id="Vector_4" d="M151.946 205.688C151.946 204.985 151.698 204.499 151.263 204.347C149.72 203.826 147.402 202.789 145.909 201.955C145.034 201.464 143.834 200.877 143.247 200.645C142.655 200.412 142.169 200.088 142.169 199.916C142.169 199.744 141.572 199.497 140.838 199.36C140.104 199.223 139.295 198.849 139.032 198.536C138.768 198.217 138.283 197.959 137.954 197.959C137.625 197.959 136.81 197.559 136.142 197.074C135.474 196.583 134.406 195.926 133.758 195.607C132.053 194.762 130.636 193.437 127.964 190.179C126.658 188.586 125.221 186.892 124.776 186.406C124.325 185.921 123.536 184.671 123.025 183.629C121.952 181.459 121.618 181.161 120.257 181.156C119.477 181.151 119.128 181.48 118.586 182.734C117.949 184.206 117.944 184.413 118.531 185.647C118.88 186.376 119.047 187.155 118.91 187.382C118.774 187.605 119.108 188.273 119.659 188.864C120.206 189.456 120.656 190.073 120.656 190.235C120.656 190.397 120.919 190.534 121.243 190.534C121.567 190.534 121.83 190.751 121.83 191.024C121.83 191.525 123.536 193.498 127.832 197.964C129.983 200.205 130.762 200.711 134.366 202.218C138.202 203.826 141.881 205.45 143.434 206.224C143.809 206.411 144.457 206.563 144.877 206.563C145.297 206.563 145.752 206.74 145.889 206.957C146.025 207.175 146.263 207.276 146.425 207.175C146.587 207.074 147.584 207.139 148.647 207.316C149.71 207.493 150.676 207.66 150.793 207.686C151.314 207.802 151.946 206.704 151.946 205.688Z" fill="#231F20"/>
<path id="Vector_5" d="M154.472 190.883C155.848 190.539 156.207 190.26 156.369 189.421C156.627 188.075 156.035 187.008 155.038 187.008C154.603 187.008 153.262 186.558 152.058 186.007C150.16 185.142 149.72 185.071 148.743 185.475C146.901 186.239 146.238 188.343 147.503 189.406C147.857 189.699 149.133 190.235 150.337 190.594C151.547 190.953 152.589 191.262 152.655 191.277C152.721 191.297 153.54 191.12 154.472 190.883Z" fill="#231F20"/>
<path id="Vector_6" d="M220.731 84.2372C221.1 84.0045 221.131 83.8224 220.827 83.6353C220.589 83.4886 220.392 83.1041 220.392 82.7804C220.392 82.4567 219.511 81.3338 218.439 80.2868C217.361 79.2397 216.485 78.3091 216.485 78.218C216.485 78.127 215.721 77.2671 214.79 76.3111C213.859 75.3551 212.766 74.0097 212.361 73.3217C211.956 72.6389 211.445 72.0775 211.222 72.0724C210.999 72.0724 210.24 71.5312 209.537 70.8686C208.833 70.206 206.809 68.9768 205.038 68.1321C201.865 66.6197 201.313 66.3163 199.178 64.905C198.125 64.207 198.054 64.207 196.829 64.9253C195.068 65.9521 195.013 67.0649 196.657 68.3193C197.391 68.8757 198.368 69.336 198.834 69.336C199.299 69.336 199.679 69.4776 199.679 69.6546C199.679 70.0947 202.568 71.6829 203.368 71.6829C204.638 71.6829 207.047 73.2459 208.317 74.8948C209.967 77.0344 213.616 80.6763 214.107 80.6763C214.314 80.6763 214.537 80.8331 214.613 81.0253C214.684 81.2175 215.625 82.0824 216.698 82.9524C218.631 84.5305 219.724 84.8745 220.731 84.2372Z" fill="#231F20"/>
<path id="Vector_7" d="M104.827 87.3224C104.285 87.3224 99.2396 90.7973 96.5524 93.028C95.019 94.2975 93.268 95.6885 92.6658 96.1185C92.0636 96.5484 91.1173 97.2717 90.5657 97.7269C90.014 98.1822 89.0323 98.8246 88.3896 99.1634C87.7418 99.4973 86.5576 100.403 85.7479 101.172C84.9432 101.94 84.1335 102.573 83.9514 102.573C83.4453 102.573 82.7166 104.434 82.7166 105.719C82.7166 106.599 82.8937 106.872 83.4757 106.872C83.8906 106.872 84.3461 106.69 84.4827 106.472C84.6194 106.25 86.3451 105.264 88.3187 104.272C90.2924 103.286 92.6102 101.996 93.4705 101.414C94.3308 100.833 96.0008 99.7198 97.185 98.9409C98.3692 98.1619 100.13 96.9632 101.097 96.2753C102.063 95.5874 103.784 94.5454 104.918 93.9536C106.051 93.3618 107.195 92.7143 107.458 92.512C107.721 92.3097 108.9 91.8342 110.08 91.4549C112.256 90.7619 114.331 89.5379 114.897 88.6173C115.069 88.3391 115.383 88.1115 115.596 88.1115C115.808 88.1115 116.198 87.9395 116.456 87.727C118.627 85.9567 119.432 85.375 119.72 85.37C119.902 85.37 120.935 84.935 122.013 84.4039C123.091 83.8728 124.285 83.4378 124.68 83.4277C125.494 83.4125 129.254 82.2592 129.836 81.8445C130.373 81.46 137.397 79.3053 138.834 79.0827C139.052 79.0473 139.624 78.8703 140.115 78.6831C141.268 78.2431 142.67 77.9649 145.089 77.6867C146.167 77.5602 147.615 77.2264 148.303 76.9431C151.526 75.623 156.268 74.8137 162.69 74.49C171.101 74.0651 175.651 74.1511 179.117 74.7884C187.589 76.3513 189.719 76.8319 190.524 77.3579C191.015 77.6766 191.637 77.9396 191.916 77.9396C192.194 77.9396 193.439 78.5567 194.689 79.3053C195.934 80.0589 197.229 80.671 197.563 80.671C197.897 80.671 198.687 81.106 199.314 81.632C199.942 82.1631 201.07 82.7094 201.819 82.851C202.568 82.9927 203.277 83.2607 203.393 83.4529C203.51 83.6452 203.879 83.7969 204.213 83.7969C204.547 83.7969 205.6 84.3229 206.556 84.9704C207.513 85.6178 208.429 86.1439 208.591 86.1439C208.752 86.1439 209.274 86.4979 209.739 86.938C211.004 88.1165 212.153 88.4251 213.509 87.9395C214.167 87.7068 214.825 87.3527 214.962 87.1555C215.387 86.5738 214.871 85.7493 214.081 85.7493C213.676 85.7493 213.125 85.3953 212.857 84.9653C212.588 84.5354 212.087 84.1813 211.748 84.1813C211.06 84.1813 209.679 82.8004 209.304 81.7382C208.975 80.8126 206.92 79.5987 204.441 78.8652C203.312 78.5314 202.138 78.0104 201.829 77.7019C201.521 77.3933 201.04 77.1404 200.752 77.1354C200.468 77.1303 199.441 76.5891 198.474 75.9366C195.564 73.9639 190.569 71.7232 188.697 71.5461C187.73 71.4551 185.883 71.182 184.588 70.9341C177.144 69.5128 174.482 69.2245 168.94 69.2599C158.151 69.3307 154.244 69.5988 151.142 70.489C149.527 70.9493 147.154 71.5208 145.864 71.7535C143.333 72.2087 136.36 74.2016 132.564 75.5522C131.274 76.0124 128.809 76.7358 127.088 77.1606C122.043 78.41 117.807 80.241 114.204 82.7347C112.898 83.635 110.864 84.7933 109.685 85.3093C105.672 87.0847 105.09 87.3224 104.827 87.3224Z" fill="#231F20"/>
<path id="Vector_8" d="M190.478 146.204C191.015 147.413 191.45 148.784 191.45 149.244C191.45 150.498 193.449 153.23 194.775 153.791C196.344 154.449 197.847 154.206 198.763 153.144L199.643 152.117L197.892 149.891C196.931 148.667 196.146 147.378 196.146 147.029C196.146 146.68 196 146.3 195.823 146.194C195.645 146.083 195.266 144.975 194.982 143.726C194.699 142.481 193.874 140.322 193.156 138.931C192.437 137.54 191.845 136.214 191.845 135.982C191.845 135.405 189.497 132.669 185.873 129.017C183.14 126.265 182.72 125.982 181.708 126.204C180.296 126.513 179.234 127.651 179.558 128.501C179.694 128.855 179.962 129.143 180.155 129.143C180.347 129.143 180.504 129.396 180.504 129.699C180.504 130.372 182.776 132.815 183.733 133.164C184.112 133.301 184.416 133.766 184.416 134.196C184.416 134.626 185.231 135.977 186.227 137.201C187.725 139.042 190.241 143.999 189.674 143.999C189.578 144.009 189.942 144.995 190.478 146.204Z" fill="#231F20"/>
<path id="Vector_9" d="M78.253 199.623C78.668 200.108 79.3563 201.181 79.7763 202.015C80.1963 202.85 80.9453 203.791 81.4362 204.114C81.9271 204.433 82.3269 204.984 82.3269 205.328C82.3269 205.677 82.838 207.018 83.4655 208.313C84.093 209.607 84.8977 211.59 85.257 212.718C85.6163 213.846 86.0718 214.772 86.2691 214.772C86.4665 214.772 86.6284 215.101 86.6284 215.505C86.6284 215.91 86.9068 216.471 87.2458 216.75C87.5849 217.033 88.1972 217.923 88.6122 218.732C89.2701 220.017 91.7195 222.961 93.7488 224.888C96.4107 227.422 97.19 228.393 97.19 229.157C97.19 230.133 98.941 232.146 99.4927 231.802C99.7305 231.656 99.9279 231.722 99.9279 231.949C99.9279 232.177 100.191 232.364 100.515 232.364C101.223 232.364 101.259 230.422 100.581 228.58C100.07 227.189 98.5767 225.328 97.9745 225.328C97.7568 225.328 97.5797 225.075 97.5797 224.772C97.5797 224.463 97.1394 223.866 96.603 223.446C96.0666 223.022 95.6162 222.526 95.6111 222.344C95.601 222.162 95.0342 221.656 94.351 221.226C93.6678 220.796 92.9188 220.068 92.6861 219.607C92.4583 219.147 92.0332 218.49 91.7448 218.14C91.4614 217.797 91.35 217.513 91.5069 217.513C91.6638 217.513 91.431 216.906 90.9907 216.163C90.5505 215.419 89.9837 213.705 89.7205 212.349C89.4624 210.998 89.1132 209.714 88.9462 209.491C88.7792 209.274 88.2479 208.039 87.7671 206.755C86.8865 204.393 86.6993 204.033 84.4726 200.503C83.7945 199.425 82.9341 197.842 82.5597 196.982C82.1852 196.123 81.5627 194.802 81.1832 194.049C80.7985 193.295 80.252 191.626 79.9686 190.336C79.6852 189.046 79.2146 187.711 78.9312 187.372C78.6427 187.033 78.4099 186.558 78.4099 186.32C78.4099 185.652 77.6002 185.303 75.8745 185.207C73.5213 185.086 73.1165 186.355 74.4525 189.673C74.8573 190.68 75.4191 192.299 75.6974 193.265C75.9757 194.231 76.5982 195.753 77.084 196.649C77.5698 197.544 77.8583 198.378 77.7267 198.505C77.6053 198.641 77.8381 199.142 78.253 199.623Z" fill="#231F20"/>
<path id="Vector_10" d="M216.475 197.842C217.224 198.227 218.191 198.874 218.626 199.274C219.061 199.673 220.033 200.402 220.787 200.887C221.541 201.378 222.583 202.238 223.105 202.799C223.833 203.583 224.425 203.821 225.665 203.821C227.452 203.821 228.221 203.29 228.206 202.081C228.185 200.953 223.383 197.433 219.294 195.551C215.832 193.963 214.84 193.907 214.107 195.278C213.636 196.158 214.016 196.573 216.475 197.842Z" fill="#231F20"/>
<path id="Vector_11" d="M223.929 141.864C223.712 141.733 223.251 140.635 222.897 139.431C222.548 138.227 221.849 136.857 221.343 136.391C220.741 135.835 220.503 135.274 220.64 134.747C220.868 133.877 220.023 133.321 219.041 133.695C218.631 133.852 218.474 134.535 218.484 136.128C218.509 139.831 219.481 143.023 221.485 145.977C221.854 146.523 222.507 147.539 222.937 148.237C223.57 149.264 223.934 149.487 224.861 149.396C225.822 149.305 226.014 149.107 226.05 148.141C226.075 147.509 225.604 146.047 225.002 144.884C224.4 143.726 224 142.623 224.112 142.441C224.228 142.259 224.142 141.996 223.929 141.864Z" fill="#231F20"/>
<path id="Vector_12" d="M242.148 126.902C242.75 126.113 242.856 124.606 242.335 124.282C242.137 124.161 241.854 123.331 241.702 122.441C241.282 119.967 238.818 114.353 237.765 113.478C237.461 113.23 237.203 112.825 237.193 112.583C237.183 112.34 236.647 111.728 236.009 111.222C234.688 110.18 233.054 110.301 233.028 111.45C232.998 112.719 234.071 116.361 234.668 117.024C234.992 117.383 235.26 117.868 235.26 118.101C235.26 118.334 235.392 118.582 235.559 118.657C235.979 118.845 238.635 124.429 238.959 125.82C239.111 126.462 239.44 127.12 239.693 127.282C240.483 127.787 241.606 127.61 242.148 126.902Z" fill="#231F20"/>
<path id="Vector_13" d="M234.623 101.313C234.461 101.055 234.294 100.443 234.238 99.9577C234.147 99.0978 232.092 95.7898 231.374 95.3497C231.176 95.2283 230.908 94.6213 230.771 94.0043C230.437 92.4969 229.329 91.5612 227.796 91.4853C226.713 91.4347 226.49 91.5865 226.217 92.5829C225.959 93.5288 226.111 94.0751 227.062 95.547C227.7 96.5434 228.226 97.5348 228.226 97.7523C228.226 97.9698 228.595 98.4807 229.051 98.8904C229.941 99.6946 231.353 102.234 231.353 103.028C231.353 103.296 231.627 104.227 231.961 105.097C232.492 106.488 232.72 106.68 233.914 106.746C235.604 106.832 235.959 105.86 235.103 103.453C234.785 102.537 234.607 101.794 234.719 101.794C234.825 101.784 234.785 101.571 234.623 101.313Z" fill="#231F20"/>
<path id="Vector_14" d="M107.651 62.9375C106.056 62.5126 105.216 62.6947 104.295 63.6659C103.44 64.5662 103.147 64.6218 99.6041 64.5713C96.0414 64.5156 95.6972 64.5814 93.673 65.7296C92.4888 66.3972 90.6973 67.1509 89.6902 67.3988C88.6326 67.6618 87.3927 68.3294 86.755 68.9769C86.1478 69.594 85.3684 70.1048 85.0192 70.1099C84.6701 70.115 84.164 70.383 83.8958 70.7068C83.6276 71.0305 83.2328 71.2935 83.0203 71.2935C82.8077 71.2935 81.6387 71.8904 80.4292 72.6187C79.2197 73.3471 77.7875 74.0704 77.2511 74.2323C76.1884 74.5459 74.903 75.7143 74.903 76.3617C74.903 76.5843 74.6752 76.7714 74.3969 76.7714C74.1186 76.7714 73.2835 77.3936 72.5396 78.1472C71.7957 78.906 70.6368 79.7658 69.9638 80.0643C68.319 80.7876 63.8657 85.2539 63.2128 86.827C62.9294 87.5199 62.3171 88.2028 61.8566 88.3495C60.2422 88.8553 58.4305 90.3727 57.2868 92.1785C56.6542 93.18 55.8749 94.1005 55.5611 94.2169C55.05 94.4141 54.1087 95.7343 52.798 98.0914C52.5551 98.5264 52.4235 99.098 52.5146 99.361C52.6006 99.624 52.8385 99.8415 53.0358 99.8415C53.4862 99.8415 56.9376 97.0444 59.0833 94.9452C60.7078 93.357 64.4426 90.5447 65.4294 90.1653C65.733 90.049 66.7958 89.0981 67.7927 88.0561C68.7897 87.0141 69.7866 86.1593 70.0042 86.1542C70.2218 86.1542 70.9455 85.6434 71.6085 85.0212C73.3544 83.3875 77.1904 80.2919 77.4738 80.2919C77.6054 80.2919 78.5011 79.7658 79.4525 79.1184C80.409 78.471 81.2845 77.9449 81.3958 77.9449C81.5071 77.9449 82.7116 77.1559 84.0678 76.1847C86.7955 74.2424 87.4129 74.0552 87.4129 75.1832C87.4129 76.4174 88.1467 76.5084 89.5334 75.4513C90.672 74.5813 98.5363 71.688 99.7559 71.688C100.004 71.688 101.072 71.2277 102.124 70.6714C103.177 70.1099 104.083 69.6749 104.138 69.6951C104.639 69.9076 105.287 69.4675 106.785 67.9046C108.217 66.4124 108.541 65.8105 108.541 64.6269C108.531 63.4484 108.364 63.1297 107.651 62.9375Z" fill="#231F20"/>
<path id="Vector_15" d="M107.357 200.169C107.357 200.458 107.534 200.695 107.746 200.695C108.242 200.695 109.492 201.935 109.801 202.729C110.12 203.558 111.952 203.174 112.493 202.162C113.085 201.06 112.625 199.264 111.365 197.731C109.391 195.334 108.708 194.261 107.777 192.092C107.266 190.908 106.577 189.325 106.238 188.571C105.904 187.817 105.606 187.114 105.581 187.008C105.555 186.902 105.424 186.548 105.292 186.224C104.639 184.631 104.275 182.527 104.609 182.319C105.236 181.93 104.892 180.205 103.956 179.057C103.46 178.45 103.05 177.554 103.05 177.064C103.05 175.415 100.135 173.857 98.4551 174.606C97.3974 175.081 97.2608 176.927 98.1565 178.647C98.4753 179.264 98.7436 180.205 98.7486 180.746C98.7486 181.282 98.9814 182.162 99.2597 182.699C99.5381 183.235 100.08 184.646 100.454 185.825C102.048 190.822 105.272 197.752 106.527 198.885C106.987 199.304 107.357 199.876 107.357 200.169Z" fill="#231F20"/>
<path id="Vector_16" d="M74.7358 125.83C75.171 126.498 75.7327 126.806 76.5019 126.806C77.1244 126.806 77.6305 126.624 77.6305 126.397C77.6305 126.174 78.1618 124.854 78.8096 123.463C79.923 121.08 80.2772 120.777 81.8308 120.833C82.099 120.843 82.8581 120.231 83.5262 119.477C84.7407 118.096 84.847 116.811 83.85 115.613C82.7114 114.242 78.8045 115.076 76.9827 117.079C75.8694 118.304 74.8218 120.893 75.0951 121.748C75.2165 122.122 75.1508 122.537 74.9483 122.659C74.2095 123.124 74.0931 124.849 74.7358 125.83Z" fill="#231F20"/>
<path id="Vector_17" d="M200.656 216.568C201.182 215.556 201.182 215.339 200.645 214.519C200.251 213.922 199.507 213.518 198.484 213.356C197.629 213.219 196.926 212.951 196.926 212.759C196.926 212.253 191.491 212.536 191.293 213.052C191.202 213.29 190.585 213.594 189.922 213.725C189.259 213.857 187.908 214.337 186.916 214.787C185.929 215.237 184.826 215.49 184.471 215.354C182.088 214.418 172.883 215.42 171.223 216.795C170.944 217.028 169.704 217.286 168.47 217.357C167.235 217.438 165.459 217.564 164.522 217.65C163.586 217.731 162.356 217.569 161.785 217.286C160.292 216.542 157.098 215.743 156.805 216.037C156.339 216.502 158.692 219.264 160.145 219.952C160.939 220.326 162.189 220.645 162.928 220.65C163.662 220.66 164.71 220.913 165.246 221.221V221.216C165.782 221.525 166.896 221.783 167.716 221.788C169.477 221.803 173.07 220.705 173.07 220.149C173.07 219.936 173.323 219.856 173.626 219.977C173.935 220.093 174.36 219.977 174.578 219.719C174.998 219.218 177.225 219.208 183.748 219.684C186.055 219.85 187.923 219.81 188.439 219.577C191.673 218.136 193.424 217.736 196.637 217.721C200.013 217.706 200.074 217.686 200.656 216.568Z" fill="#231F20"/>
<path id="Vector_18" d="M118.895 122.906C121.8 121.333 122.453 120.691 122.741 119.118C123.019 117.606 122.498 117.1 120.352 116.801C118.996 116.609 118.495 116.771 116.84 117.909C115.778 118.637 114.664 119.452 114.361 119.715C114.057 119.978 113.217 120.504 112.488 120.883C110.307 122.016 103.915 126.933 103.404 127.874C103.141 128.354 102.65 128.845 102.306 128.966C101.562 129.229 98.5663 132.825 97.7414 134.449C97.4175 135.081 96.9317 135.774 96.6584 135.992C96.1827 136.371 94.4874 142.031 94.4925 143.225C94.4925 143.549 94.0724 145.238 93.5562 146.978C92.7111 149.836 92.6757 150.19 93.2374 150.569C93.5815 150.802 94.4317 151.009 95.1301 151.014C96.2839 151.035 96.4003 150.928 96.4003 149.886C96.4003 149.254 96.5572 148.642 96.7445 148.521C96.9317 148.404 97.21 147.352 97.3568 146.184C97.5289 144.818 97.8376 143.979 98.2272 143.832C98.5562 143.705 98.7384 143.356 98.622 143.058C97.9641 141.343 103.126 134.444 108.308 130.119C109.082 129.472 110.272 128.46 110.95 127.874C111.628 127.282 112.352 126.796 112.554 126.796C112.756 126.796 113.738 126.204 114.735 125.481C115.732 124.768 117.605 123.604 118.895 122.906Z" fill="#231F20"/>
<path id="Vector_19" d="M202.796 198.707C202.796 197.772 202.067 197.579 197.563 197.331C193.555 197.114 190.099 196.254 188.07 194.974C186.536 194.008 185.261 193.012 180.701 189.193C179.841 188.475 178.601 187.554 177.948 187.155C177.295 186.75 175.681 185.541 174.355 184.469C172.518 182.971 171.941 182.263 171.921 181.454C171.891 180.235 170.944 179.583 169.188 179.583C167.412 179.583 166.724 180.872 167.042 183.594C167.184 184.782 167.407 185.925 167.543 186.133C167.675 186.34 169.37 187.529 171.309 188.773C173.247 190.017 175.114 191.322 175.463 191.666C176.253 192.44 177.118 193.143 179.127 194.646C181.217 196.203 181.273 196.249 182.817 197.584C183.555 198.222 184.365 198.743 184.623 198.743C184.876 198.743 185.549 199.107 186.111 199.547C186.673 199.992 188.328 200.65 189.78 201.014C193.363 201.909 195.099 201.995 198.095 201.439C200.832 200.923 202.796 199.785 202.796 198.707Z" fill="#231F20"/>
<path id="Vector_20" d="M167.093 248.783C166.547 249.213 165.651 249.567 165.109 249.567C164.563 249.567 164.021 249.718 163.905 249.911C163.789 250.098 162.852 250.462 161.83 250.72C160.803 250.973 159.527 251.474 158.986 251.828C157.144 253.042 155.302 253.871 154.441 253.871C153.834 253.871 153.46 254.225 153.151 255.105C152.913 255.783 152.766 256.38 152.822 256.415C152.878 256.456 153.272 256.683 153.703 256.926C154.684 257.478 154.963 257.493 155.266 257.002C155.398 256.785 156.344 256.613 157.367 256.613C158.475 256.613 160.56 256.122 162.528 255.399C164.345 254.731 166.182 254.149 166.612 254.094C168.404 253.876 171.587 252.561 172.771 251.549C173.632 250.816 173.647 249.653 172.807 248.727C171.881 247.69 168.439 247.726 167.093 248.783Z" fill="#231F20"/>
<path id="Vector_21" d="M231.662 168.586C231.733 168.617 232.37 168.192 233.089 167.645C234.521 166.553 234.86 165.46 235.093 161.212C235.169 159.816 235.341 157.878 235.477 156.912C235.943 153.559 236.07 146.624 235.69 145.521C235.437 144.783 235.442 144.338 235.71 144.171C236.545 143.655 235.761 139.826 234.131 136.477C233.246 134.656 232.522 132.891 232.522 132.552C232.522 132.213 232.35 131.829 232.143 131.703C231.935 131.571 231.566 130.731 231.323 129.831C230.781 127.828 229.592 126.366 226.976 124.51C224.83 122.987 221.682 119.917 217.75 115.517C215.544 113.048 209.435 108.43 208.373 108.43C208.15 108.43 207.867 108.167 207.745 107.843C207.446 107.064 204.248 107.044 203.605 107.818C202.953 108.607 204.096 110.261 205.787 110.969C206.703 111.354 207.026 111.698 206.864 112.123C206.728 112.477 206.89 112.826 207.259 112.967C207.603 113.099 207.897 113.407 207.907 113.655C207.917 113.903 208.853 114.859 209.987 115.785C212.188 117.58 217.239 122.461 219.82 125.284C220.685 126.23 222.36 127.909 223.55 129.022C224.739 130.134 225.903 131.455 226.13 131.955C226.363 132.456 226.91 133.655 227.35 134.626C227.79 135.592 228.666 137.529 229.303 138.926C231.368 143.468 231.976 148.678 231.13 154.565C230.837 156.609 230.594 159.446 230.584 160.868C230.579 162.294 230.305 164.211 229.977 165.137C229.278 167.119 229.501 168.136 230.685 168.364H230.68C231.151 168.455 231.596 168.556 231.662 168.586Z" fill="#231F20"/>
<path id="Vector_22" d="M213.874 142.694C214.142 141.97 213.813 141.459 210.716 137.792C210.018 136.963 209.446 136.113 209.446 135.906C209.446 135.693 208.919 134.97 208.272 134.297C207.629 133.624 207.098 132.805 207.098 132.481C207.098 132.158 206.961 131.889 206.789 131.889C206.622 131.889 206.177 131.368 205.797 130.736C205.048 129.472 204.476 129.497 202.907 130.863C201.227 132.324 201.966 135.091 204.8 137.954C205.65 138.814 207.143 140.529 208.115 141.768C209.699 143.786 210.028 144.014 211.323 144.009C212.968 143.993 213.494 143.725 213.874 142.694Z" fill="#231F20"/>
<path id="Vector_23" d="M210.969 221.762C212.006 221.398 212.204 221.15 212.103 220.295C212.006 219.461 211.657 219.162 210.266 218.722C208.17 218.06 206.566 218.485 206.384 219.749C206.288 220.407 206.607 220.781 207.755 221.358C209.618 222.303 209.476 222.283 210.969 221.762Z" fill="#231F20"/>
<path id="Vector_24" d="M178.237 237.078C179.036 236.911 180.089 236.517 180.585 236.203C181.076 235.884 182.584 235.399 183.935 235.115C185.286 234.832 186.486 234.453 186.597 234.266C186.708 234.079 187.133 233.932 187.543 233.932C188.348 233.932 189.497 232.556 189.497 231.595C189.497 229.764 184.689 229.734 179.522 231.529C171.977 234.149 171.046 234.367 167.458 234.286C165.499 234.24 163.363 234.068 162.711 233.902C162.058 233.735 160.737 233.512 159.765 233.406C155.661 232.971 153.92 232.627 150.965 231.681C149.244 231.13 147.483 230.462 147.053 230.199C146.623 229.936 145.434 229.521 144.406 229.273C143.384 229.025 141.689 228.302 140.646 227.66C139.604 227.017 138.485 226.491 138.161 226.491C137.837 226.491 137.149 226.158 136.633 225.753C136.117 225.348 135.059 224.837 134.28 224.625C133.5 224.412 131.623 223.421 130.105 222.43C128.587 221.438 127.185 220.624 126.998 220.624C126.81 220.624 126.238 220.184 125.737 219.648C125.231 219.112 124.558 218.672 124.245 218.672C123.926 218.672 122.924 218.065 122.018 217.321C119.892 215.581 115.479 213.876 114.062 214.246C112.2 214.731 112.949 218.115 115.151 219.157C115.94 219.531 116.932 220.143 117.362 220.523C118.455 221.489 120.576 222.971 120.864 222.971C120.996 222.971 121.841 223.558 122.736 224.271C125.161 226.208 130.904 229.45 132.504 229.789C133.414 229.981 134.553 230.543 135.712 231.383C136.355 231.848 137.767 232.627 138.839 233.112C139.912 233.598 141.324 234.235 141.967 234.534C144.406 235.652 148.379 236.724 152.721 237.447C159.001 238.489 163.799 239.379 164.259 239.587V239.592C165.281 240.047 171.501 239.263 174.036 238.353C175.555 237.822 177.437 237.245 178.237 237.078Z" fill="#231F20"/>
<path id="Vector_25" d="M245.979 140.504C246.211 135.709 245.887 135.016 243.408 135.016C242.583 135.016 241.905 134.829 241.905 134.601C241.905 134.373 241.728 134.297 241.515 134.429C240.948 134.778 241.065 136.538 241.778 138.339C242.239 139.512 242.426 141.713 242.522 147.135C242.598 151.111 242.659 154.5 242.669 154.661C242.679 154.823 242.952 154.955 243.276 154.955C243.808 154.955 244.045 154.039 243.964 152.279C243.949 151.991 244.288 151.404 244.713 150.979C245.25 150.443 245.457 149.76 245.402 148.769C245.356 147.98 245.422 146.715 245.548 145.961C245.675 145.208 245.872 142.755 245.979 140.504Z" fill="#231F20"/>
<path id="Vector_26" d="M212.189 60.7372C211.197 59.7559 208.165 57.7934 206.511 57.06C205.65 56.6806 204.066 55.9472 202.988 55.4312C200.078 54.0403 193.996 51.7439 193.211 51.7439C192.837 51.7439 191.096 51.4859 189.35 51.1723C187.599 50.8587 184.841 50.4136 183.221 50.186C179.694 49.6852 166.774 49.6953 162.113 50.1961C160.286 50.3934 153.88 50.6513 147.878 50.7727C141.876 50.8941 136.243 51.142 135.363 51.3342C134.477 51.5264 132.276 51.7945 130.459 51.9361C126.754 52.2244 122.574 53.4434 121.598 54.5208C120.535 55.6943 121.167 56.4327 123.278 56.4884C124.305 56.5137 126.643 56.5997 128.475 56.6857C133.844 56.9234 133.966 56.9234 138.252 56.7413C140.509 56.6452 143.94 56.716 145.879 56.8981C150.413 57.323 151.557 57.3483 154.877 57.0954C156.385 56.979 159.462 56.7413 161.724 56.5744C168.945 56.0281 185.979 56.458 187.735 57.2319C188.166 57.4241 189.79 57.763 191.349 57.9906C192.907 58.2183 194.755 58.7544 195.453 59.1793C196.156 59.6092 197.037 59.9583 197.417 59.9583C198.449 59.9583 209.415 65.4868 210.625 66.6147C211.207 67.156 212.543 68.0158 213.595 68.5216C214.648 69.0275 216.101 69.7305 216.819 70.0795C217.543 70.4286 219.653 72.3759 221.515 74.4143C224.906 78.127 225.938 79.1791 228.98 82.0116C229.881 82.8513 230.893 84.0855 231.237 84.7481C231.935 86.1138 232.958 87.3985 235.67 90.3322C236.702 91.445 237.674 92.7652 237.831 93.2659C237.988 93.7616 238.398 94.3737 238.747 94.6215C239.091 94.8694 240.255 96.842 241.333 99.0018C242.411 101.167 243.605 103.038 243.99 103.175C244.445 103.332 244.612 103.66 244.471 104.116C244.349 104.5 244.506 105.026 244.825 105.289C245.139 105.552 245.614 106.721 245.872 107.884C246.136 109.047 246.495 110.003 246.677 110.003C246.859 110.003 247.006 110.271 247.006 110.595C247.006 110.919 247.173 111.49 247.386 111.865C247.841 112.679 250.068 118.324 250.589 119.973C251.884 124.075 252.34 126.837 252.224 129.942C252.158 131.768 252.183 133.483 252.279 133.756C252.375 134.024 252.79 134.247 253.2 134.247C253.777 134.247 254.096 133.711 254.612 131.864C254.982 130.554 255.194 129.401 255.093 129.295C254.992 129.194 255.24 128.157 255.65 126.993C256.616 124.242 256.586 123.488 255.412 121.177C254.875 120.119 254.435 119.022 254.435 118.734C254.435 118.445 254.278 118.213 254.086 118.213C253.742 118.213 253.347 116.26 253.124 113.412C253.059 112.598 252.8 111.728 252.547 111.475C252.294 111.222 252.087 110.777 252.087 110.484C252.087 110.19 251.667 109.391 251.151 108.703C250.634 108.02 249.931 106.351 249.592 105.001C249.248 103.65 248.529 101.576 247.988 100.398C247.446 99.2194 247.006 98.0256 247.006 97.7474C247.006 97.4692 246.52 96.6903 245.928 96.0226C245.336 95.3499 244.501 94.227 244.071 93.5239C243.641 92.8208 242.851 91.5209 242.31 90.6357C239.719 86.3616 234.314 79.69 228.089 73.0739C220.508 65.0214 220.27 64.8039 218.059 64.0756C216.48 63.5445 213.064 61.6072 212.189 60.7372Z" fill="#231F20"/>
<path id="Vector_27" d="M235.65 63.6606C235.65 63.7668 236.459 65.0364 237.441 66.478C238.428 67.9195 240.118 70.914 241.196 73.1294C242.593 75.9974 243.357 77.1607 243.853 77.1607C244.896 77.1607 245.346 76.3818 245.447 74.4243C245.584 71.7384 245.083 69.9327 243.625 67.8892C242.897 66.8624 242.299 65.8356 242.299 65.608C242.299 65.3804 241.991 64.8493 241.611 64.4345C241.232 64.0197 240.604 63.1801 240.214 62.5731C237.173 57.8387 230.594 52.5378 228.428 53.079C226.551 53.5494 226.981 54.642 230.316 57.8944C233.56 61.0405 235.65 63.3116 235.65 63.6606Z" fill="#231F20"/>
<path id="Vector_28" d="M243.458 171.884C243.468 170.984 243.281 170.129 243.043 169.982C242.79 169.826 242.714 169.193 242.866 168.394C243.134 166.973 242.628 166.669 241.515 167.575C240.847 168.116 239.951 170.448 239.951 171.652C239.951 172.673 238.893 176.28 238.129 177.868C237.805 178.536 237.512 179.618 237.477 180.271C237.431 181.065 236.859 182.066 235.746 183.285C233.929 185.278 233.686 186.3 234.825 187.099C235.235 187.387 236.277 187.62 237.148 187.62C238.934 187.62 239.364 187.059 239.799 184.17C239.936 183.265 240.391 181.945 240.817 181.242C241.242 180.539 241.49 179.714 241.373 179.411C241.257 179.107 241.353 178.799 241.596 178.718C242.193 178.51 243.443 173.908 243.458 171.884Z" fill="#231F20"/>
<path id="Vector_29" d="M159.669 95.0968L160.544 94.7731L159.73 93.3922C159.279 92.6335 158.713 91.9911 158.465 91.9507C157.473 91.8191 157.194 91.7534 156.253 91.4448C155.717 91.2678 154.856 90.7923 154.34 90.3928C153.829 89.9932 153.151 89.6644 152.832 89.6644C152.518 89.6644 151.658 89.3811 150.924 89.0321C149.821 88.5111 149.391 88.4808 148.45 88.8703C146.187 89.806 146.511 91.6168 149.072 92.3755C150.044 92.6639 151.152 93.2354 151.537 93.6451C151.921 94.0548 153.09 94.7276 154.143 95.1373V95.1423C156.025 95.8707 157.609 95.8606 159.669 95.0968Z" fill="#231F20"/>
<path id="Vector_30" d="M76.36 50.2264C77.0685 50.4894 79.5584 50.368 81.9116 49.9633C82.6505 49.8369 85.4692 48.6735 88.1716 47.3837C90.874 46.0939 93.789 44.7282 94.6493 44.3438C95.5096 43.9644 97.1796 43.2006 98.3638 42.6544C99.548 42.103 101.456 41.4252 102.61 41.142C104.168 40.7626 104.791 40.4035 105.044 39.7409C105.292 39.0934 105.697 38.8456 106.511 38.8456C107.134 38.8456 108.09 38.4915 108.637 38.0616C109.184 37.6316 109.867 37.2776 110.155 37.2725C110.444 37.2675 111.071 36.706 111.547 36.0282C112.969 33.9898 111.274 32.9175 109.204 34.5462C108.657 34.9761 107.797 35.3302 107.291 35.3302C106.79 35.3302 105.494 35.7652 104.421 36.2963C103.344 36.8224 102.154 37.2624 101.775 37.2725C100.687 37.2928 97.9691 38.2234 97.9691 38.5775C97.9691 38.7545 97.8071 38.795 97.6047 38.6736C97.1948 38.4207 95.5197 39.0732 94.0572 40.0545C93.5208 40.4136 92.4631 40.798 91.709 40.9093C90.0087 41.1622 87.534 42.0878 86.9267 42.6948C86.6737 42.9477 86.0866 43.1501 85.616 43.1501C85.1454 43.1501 84.5634 43.3928 84.3205 43.6862C84.0776 43.9796 83.0452 44.541 82.028 44.9255C79.1839 46.0129 77.6758 47.0296 76.6283 48.5724C75.7578 49.8571 75.7325 49.9937 76.36 50.2264Z" fill="#231F20"/>
<path id="Vector_31" d="M260.305 72.8968C260.29 71.0607 258.777 68.208 257.461 67.5302C256.859 67.2216 255.422 65.5221 254.263 63.7518C253.104 61.9865 251.505 59.9228 250.705 59.1691C249.906 58.4155 248.843 57.161 248.342 56.3821C247.841 55.6031 246.763 54.5561 245.938 54.0604C245.118 53.5647 243.949 52.7504 243.342 52.2547C242.735 51.759 241.91 51.3493 241.51 51.3493C241.11 51.3493 240.68 51.0154 240.548 50.6007C240.417 50.191 239.587 49.1793 238.701 48.3549C237.122 46.8779 235.817 45.5678 234.572 44.2123C233.615 43.1703 230.953 43.3929 230.953 44.5158C230.953 44.799 230.736 45.1076 230.463 45.2037C230.174 45.3099 231.125 46.5289 232.811 48.2031C234.369 49.756 235.645 51.2785 235.645 51.5921C235.645 52.3103 238.342 55.2541 239.005 55.2541C239.278 55.2541 239.865 55.7195 240.311 56.286C240.756 56.8525 241.12 57.1914 241.12 57.0346C241.12 56.8778 241.778 57.2774 242.588 57.9147C245.316 60.0745 248.074 63.0285 250.493 66.3719C251.813 68.2029 253.023 69.6647 253.17 69.6192C253.317 69.5737 253.979 69.8569 254.637 70.2514C255.832 70.9646 256.11 71.3541 257.436 74.1108C257.821 74.915 258.347 75.5726 258.6 75.5776C258.853 75.5776 259.172 75.9317 259.308 76.3617C259.622 77.3429 260.528 77.3733 261.039 76.4173C261.317 75.8912 261.272 75.4815 260.872 74.9504C260.568 74.5559 260.315 73.6252 260.305 72.8968Z" fill="#231F20"/>
<path id="Vector_32" d="M263.777 141.677C263.519 140.468 263.069 139.548 262.628 139.31C261.652 138.789 260.963 138.824 261.302 139.376C261.454 139.623 261.647 141.06 261.717 142.562C261.793 144.07 262.051 145.536 262.294 145.825C262.552 146.138 262.659 147.226 262.552 148.5C262.396 150.397 262.461 150.65 263.099 150.65C263.676 150.65 263.772 150.453 263.575 149.674C263.423 149.072 263.494 148.698 263.762 148.698C264.334 148.698 264.339 144.297 263.777 141.677Z" fill="#231F20"/>
<path id="Vector_33" d="M297.866 150.332C297.84 147.661 297.724 145.304 297.597 145.102C297.471 144.899 297.299 143.296 297.228 141.536C297.147 139.775 296.914 137.985 296.707 137.555C295.771 135.607 295.017 132.411 294.885 129.821C294.718 126.503 293.853 121.465 293.26 120.352C293.033 119.922 292.714 118.425 292.557 117.029C292.4 115.633 292.198 114.136 292.117 113.706C292.031 113.276 291.95 111.779 291.935 110.383C291.919 108.987 291.757 107.661 291.57 107.434C291.383 107.211 291.191 106.275 291.135 105.355C291.079 104.434 290.917 103.61 290.771 103.519C290.624 103.428 289.758 101.02 288.842 98.1673C287.927 95.3145 286.94 92.7045 286.641 92.3657C286.348 92.0268 286.105 91.4501 286.105 91.0809C286.105 90.7116 285.862 90.0237 285.568 89.5483C285.275 89.0728 284.546 87.1861 283.949 85.3602C283.352 83.5342 282.714 81.7335 282.527 81.3592C282.34 80.9849 282.193 80.4386 282.193 80.1402C282.193 79.8418 281.489 78.5671 280.629 77.3026C279.769 76.0381 279.065 74.7786 279.065 74.5105C279.065 74.2374 278.488 73.1853 277.785 72.1635C277.082 71.1469 275.867 68.9921 275.088 67.3786C274.308 65.765 273.281 64.0048 272.81 63.4686C272.335 62.9325 271.495 61.6983 270.943 60.7322C270.391 59.7661 269.627 58.623 269.253 58.193C268.878 57.7631 268.362 56.6301 268.109 55.6741C267.836 54.6372 266.95 53.145 265.923 51.9665C264.971 50.884 264.197 49.7713 264.197 49.4981C264.197 49.225 264.02 49.0024 263.807 49.0024C263.595 49.0024 263.418 48.7394 263.418 48.4157C263.418 48.092 263.2 47.8239 262.927 47.8138C262.355 47.7935 260.128 44.875 259.728 43.6155C259.577 43.135 259.303 42.7455 259.126 42.7455C258.559 42.7455 255.963 40.262 255.144 38.9368C254.713 38.2388 254.212 37.6672 254.04 37.6672C253.57 37.6672 251.657 35.9828 247.224 31.6784C245.053 29.5692 242.79 27.5864 242.198 27.2728C241.606 26.9592 241.12 26.5596 241.12 26.3825C241.12 26.2055 240.503 25.73 239.749 25.3254C238.995 24.9207 238.383 24.4554 238.383 24.2935C238.383 24.1317 237.487 23.5095 236.394 22.9177C232.441 20.7731 227.573 17.8798 226.652 17.1312C226.328 16.8682 225.361 16.4332 224.501 16.1651C223.641 15.8971 222.76 15.5379 222.543 15.371C222.33 15.2041 221.095 14.501 219.805 13.803C218.514 13.11 217.052 12.1743 216.561 11.7241C216.065 11.2739 215.276 10.8794 214.8 10.8491C214.324 10.8187 213.408 10.5759 212.765 10.3129C212.123 10.0499 211.151 9.76157 210.615 9.67053C210.078 9.57948 209.203 9.4075 208.671 9.28611C208.14 9.16471 207.092 8.98768 206.349 8.89158C205.6 8.79547 204.699 8.45658 204.35 8.13792C203.995 7.81926 203.606 7.66245 203.474 7.78891C202.993 8.26943 201.561 7.49554 201.794 6.88351C201.986 6.37769 201.926 6.36252 201.43 6.77223C200.817 7.2831 198.555 6.91385 196.141 5.91741C195.605 5.69485 194.547 5.43688 193.793 5.34078C193.039 5.24973 191.986 5.01706 191.445 4.82991C190.154 4.37974 188.277 4.08131 185.129 3.8284C183.707 3.71207 182.214 3.55527 181.814 3.46928C176.369 2.35649 174.704 2.09347 171.698 1.88609C169.76 1.75458 167.24 1.46121 166.096 1.24371C164.952 1.02115 162.513 0.788476 160.676 0.717663C158.839 0.646849 157.174 0.42935 156.977 0.227026C156.779 0.0297591 155.818 -0.0107058 154.841 0.135979C153.864 0.282665 152.412 0.287723 151.617 0.141038C149.892 -0.172566 145.752 0.070224 144.877 0.540629C144.533 0.722721 143.9 0.77836 143.47 0.667082C143.04 0.555803 140.15 0.823883 137.053 1.269C133.956 1.71411 129.862 2.25027 127.954 2.45765C126.046 2.6701 124.29 2.99381 124.042 3.18602C123.794 3.37823 122.19 3.47939 120.464 3.42375C118.45 3.35294 116.957 3.49963 116.274 3.83346C115.11 4.39997 110.955 5.33572 106.972 5.92246C105.576 6.12985 103.9 6.52438 103.258 6.80763C102.61 7.08583 101.907 7.33368 101.694 7.35391C101.481 7.37414 100.92 7.60682 100.449 7.86478C99.9784 8.12274 99.2547 8.33518 98.8347 8.33518C98.4147 8.33518 97.3924 8.62855 96.5574 8.98768C95.7224 9.34681 94.2497 9.76663 93.2832 9.92343C91.3449 10.237 84.9482 12.6194 84.7407 13.11C84.6699 13.282 84.2296 13.4236 83.764 13.4236C83.2985 13.4287 81.4463 14.2178 79.6497 15.1839C77.8532 16.15 76.1629 16.934 75.8998 16.934C75.6315 16.934 75.1255 17.2476 74.7814 17.632C74.4322 18.0164 72.4281 19.2 70.328 20.2673C68.2278 21.3295 66.2187 22.4878 65.8645 22.8419C65.5102 23.1959 64.5234 23.7928 63.6631 24.1671C62.8028 24.5464 61.8058 25.3557 61.4465 25.9678C60.8645 26.949 57.0741 29.8372 56.3656 29.8372C55.9456 29.8372 53.7745 31.4305 51.5731 33.3526C48.6531 35.907 48.2078 36.2661 47.6916 36.4836C47.4335 36.5898 46.1279 37.7026 44.7868 38.957C43.4457 40.2114 41.9731 41.4051 41.5176 41.6125C41.0571 41.8199 40.2879 42.5938 39.8071 43.3272C39.3263 44.0606 37.9195 45.3049 36.6796 46.089C34.2201 47.6469 33.046 48.8456 31.9124 50.9498C31.5076 51.7035 30.6979 52.7606 30.1159 53.2968C29.5339 53.8329 28.3801 55.3301 27.5552 56.62C25.6828 59.5435 24.5087 61.2431 23.3751 62.6644C22.8893 63.2714 22.4945 63.9643 22.4945 64.2071C22.4945 64.4449 21.9784 65.1833 21.3458 65.846C20.7132 66.5086 20.278 67.2622 20.3843 67.5303C20.4855 67.7933 19.8124 68.7089 18.8914 69.5586C17.9703 70.4084 16.7912 71.8904 16.275 72.8565C15.7588 73.8226 15.1161 74.8747 14.8479 75.1984C14.1495 76.033 13.0766 78.7441 13.2993 79.1033C13.4056 79.2702 13.2285 79.6243 12.9046 79.8923C12.5858 80.1554 12.3226 80.5954 12.3226 80.8584C12.3226 81.1265 11.8874 81.9813 11.356 82.7654C10.8246 83.5494 10.4856 84.1867 10.607 84.1867C10.8398 84.1867 9.20524 86.9939 8.7852 87.3126C8.6435 87.4188 8.51699 88.0511 8.5018 88.7137C8.44614 91 6.77106 96.4223 5.2984 99.0929C5.1061 99.447 5.04031 100.084 5.15164 100.514C5.26298 100.944 5.16682 101.415 4.92897 101.561C4.69618 101.708 4.50388 102.32 4.50388 102.927C4.50388 103.534 4.24072 104.662 3.91684 105.431C3.59296 106.205 3.3298 107.287 3.3298 107.843C3.3298 108.4 3.07171 109.346 2.76301 109.953C2.0697 111.288 1.85209 112.431 1.55351 116.24C1.42699 117.853 1.15878 119.963 0.95635 120.929C0.521133 122.993 0.303524 128.592 0.647649 128.931C1.0272 129.31 0.647649 138.723 0.207371 139.877C-0.015298 140.458 -0.0659047 141.136 0.090976 141.389C0.399677 141.89 0.566679 146.401 0.602103 155.663C0.617285 159.977 0.774166 161.9 1.15372 162.507C1.44217 162.972 1.89257 164.843 2.15573 166.669C2.41888 168.495 2.87434 170.817 3.17798 171.824C3.47656 172.83 3.72453 174.125 3.72453 174.697C3.72453 176.179 5.20225 183.422 5.83989 185.045C6.70527 187.261 8.46638 192.587 8.68399 193.644C8.89148 194.671 9.75179 196.866 10.4147 198.065C10.6323 198.455 10.7032 199.102 10.5767 199.497C10.4249 199.972 10.6323 200.417 11.1688 200.796C12.1151 201.459 13.8762 205.455 13.8864 206.977C13.8914 207.539 14.2457 208.449 14.6758 208.996C15.106 209.542 15.4602 210.174 15.4602 210.397C15.4602 210.887 17.0037 213.583 17.697 214.297C17.9754 214.58 18.2031 215.106 18.2082 215.47C18.2132 215.829 18.5624 216.568 18.9824 217.104C19.4025 217.64 19.7517 218.237 19.7567 218.429C19.7618 218.621 20.7081 219.85 21.862 221.165C23.0158 222.481 24.5391 224.61 25.2526 225.9C25.9662 227.19 26.9682 228.687 27.4844 229.223C29.0481 230.852 31.0926 234.296 30.8548 234.903C30.7232 235.247 30.8649 235.475 31.2191 235.475C31.538 235.475 32.2667 236.426 32.8335 237.584C33.4003 238.748 34.2758 239.967 34.7768 240.29C35.4296 240.715 35.7586 241.403 35.9357 242.708C36.1077 243.962 36.5227 244.863 37.2616 245.591C37.8537 246.173 38.7798 247.225 39.3162 247.918C40.2929 249.187 42.7423 251.797 49.0124 258.257C52.059 261.398 56.5022 265.156 57.2158 265.191C57.3727 265.201 58.1166 265.727 58.8605 266.365C59.6044 267.002 60.3736 267.523 60.5659 267.523C60.8645 267.523 61.5477 268.009 63.825 269.855C64.073 270.057 65.1762 270.77 66.2693 271.448C67.3675 272.121 68.2632 272.839 68.2632 273.042C68.2632 273.244 69.4424 273.957 70.8846 274.625C72.3269 275.292 74.3613 276.436 75.4038 277.169C76.4463 277.902 77.7368 278.666 78.2682 278.868C78.7995 279.071 80.171 279.941 81.3147 280.806C82.4584 281.671 83.6527 282.379 83.9665 282.379C84.2802 282.379 84.7053 282.536 84.9078 282.723C85.1102 282.91 85.9857 283.289 86.846 283.567C87.7063 283.841 88.936 284.387 89.5838 284.781C93.9309 287.422 100.56 289.9 109.533 292.227C110.393 292.45 111.36 292.733 111.684 292.849C112.266 293.067 112.579 293.117 115.206 293.451C115.96 293.547 117.544 293.906 118.728 294.25C119.912 294.594 121.582 294.882 122.443 294.887C123.303 294.893 124.973 295.171 126.157 295.51C127.443 295.874 130.595 296.203 133.981 296.319C137.098 296.425 140.266 296.653 141.02 296.825V296.82C142.503 297.159 146.132 297.113 146.719 296.754C147.205 296.456 152.508 295.737 154.71 295.677C160.509 295.505 169.016 294.614 170.013 294.083C170.499 293.825 172.508 293.572 174.471 293.517C176.44 293.466 178.383 293.249 178.798 293.036C179.208 292.824 179.75 292.723 179.998 292.814C180.246 292.905 180.564 292.793 180.706 292.566C180.848 292.338 181.835 292.151 182.908 292.151C183.975 292.151 185.483 291.888 186.253 291.569C187.022 291.251 187.816 291.089 188.019 291.21C188.221 291.337 188.596 291.266 188.859 291.059C189.117 290.851 191.617 290.108 194.416 289.405C197.214 288.701 200.114 287.821 200.868 287.452C201.622 287.078 202.852 286.643 203.606 286.486C204.36 286.324 205.417 285.884 205.954 285.505C207.396 284.493 209.775 283.567 211.176 283.487C211.855 283.446 212.877 283.092 213.444 282.703C214.015 282.313 214.689 281.989 214.947 281.989C215.2 281.989 215.701 281.65 216.06 281.236C216.414 280.821 218.115 279.744 219.83 278.843C221.546 277.943 223.98 276.521 225.235 275.687C226.49 274.852 227.598 274.169 227.694 274.169C227.791 274.169 229.582 273.057 231.677 271.696C233.772 270.335 236.04 268.884 236.718 268.469C239.309 266.891 242.33 264.696 242.33 264.387C242.33 264.21 242.902 263.709 243.6 263.269C244.299 262.834 245.376 262 245.989 261.423C246.606 260.846 247.922 259.749 248.924 258.99C249.921 258.226 251.09 257.159 251.52 256.613C251.95 256.066 252.623 255.353 253.023 255.025C253.418 254.696 254.531 253.679 255.498 252.764C256.464 251.848 257.512 251.104 257.836 251.104C258.16 251.104 258.311 250.938 258.185 250.73C257.962 250.371 258.797 249.273 261.343 246.562C262.011 245.854 262.861 244.812 263.23 244.246C264.162 242.824 265.432 241.352 266.55 240.381C267.072 239.931 267.8 239.274 268.175 238.919C268.544 238.565 269.212 238.161 269.658 238.019C270.098 237.878 270.832 237.018 271.287 236.107C271.743 235.197 272.628 234.104 273.261 233.684C273.888 233.265 274.404 232.592 274.404 232.192C274.404 231.221 276.069 227.969 277.481 226.168C278.109 225.364 278.757 224.271 278.919 223.73C279.08 223.194 279.597 222.228 280.062 221.58C280.533 220.938 281.11 219.79 281.343 219.041C281.58 218.287 282.243 216.355 282.825 214.742C283.402 213.128 283.924 211.444 283.989 210.994C284.05 210.543 284.743 208.783 285.533 207.084C286.358 205.308 287.203 202.633 287.527 200.796C288.271 196.568 289.055 193.604 289.85 192.071C290.209 191.383 290.649 189.997 290.826 188.996C291.434 185.642 292.425 182.107 292.997 181.232C293.311 180.756 293.564 179.932 293.564 179.406C293.564 178.88 293.736 178.389 293.944 178.318C294.151 178.247 294.43 177.221 294.561 176.037C294.693 174.853 294.971 172.83 295.184 171.54C295.396 170.251 295.669 168.536 295.791 167.727C295.912 166.922 296.18 166.26 296.378 166.26C296.585 166.26 296.656 165.283 296.55 164.029C296.418 162.542 296.621 160.691 297.142 158.48C297.704 156.032 297.891 153.963 297.866 150.332ZM18.1829 110.19C18.5776 109.113 19.0128 107.358 19.1444 106.281C19.362 104.51 19.61 103.585 20.5057 101.197C21.0421 99.7657 21.7557 97.6817 21.8367 97.2872C21.8822 97.0748 22.2213 96.2958 22.5907 95.5674C22.9601 94.834 23.2638 93.9994 23.2638 93.7111C23.2638 93.4228 23.4207 93.1851 23.613 93.1851C24.0026 93.1851 22.9854 97.0242 22.4085 97.7525C22.2061 98.0054 21.9581 98.8653 21.8569 99.6645C21.7608 100.464 21.5533 101.308 21.4014 101.546C21.2496 101.784 21.118 102.244 21.0978 102.568C21.0472 103.655 20.4349 105.886 19.9085 106.918C19.6201 107.484 19.281 108.542 19.1596 109.265C19.0381 109.988 18.6687 111.415 18.3347 112.431C18.0007 113.448 17.5705 114.384 17.3732 114.505C16.8873 114.803 17.3074 112.573 18.1829 110.19ZM15.2072 121.323C15.3033 120.792 15.3944 120.221 15.4147 120.059C15.4299 119.897 15.6323 119.765 15.86 119.765C16.113 119.765 16.1738 120.114 16.0118 120.646C15.6171 121.956 14.9946 122.482 15.2072 121.323ZM14.8529 122.896C14.9845 122.679 15.1718 122.507 15.2679 122.507C15.3691 122.507 15.44 122.684 15.44 122.896C15.44 123.114 15.2527 123.286 15.025 123.286C14.7973 123.286 14.7214 123.109 14.8529 122.896ZM15.0503 123.873C15.2629 123.741 15.44 123.893 15.44 124.217C15.44 124.54 15.2629 124.91 15.0503 125.046C14.8327 125.178 14.6606 125.026 14.6606 124.702C14.6606 124.378 14.8378 124.004 15.0503 123.873ZM35.1968 222.976C35.0956 222.976 34.9995 222.683 34.9995 222.324C34.9995 221.965 34.7059 221.348 34.3517 220.953C33.5319 220.048 33.9013 219.587 34.7616 220.447C35.1108 220.796 35.3942 221.509 35.3942 222.03C35.3891 222.551 35.3031 222.976 35.1968 222.976ZM102.666 281.038C102.666 281.726 101.613 281.777 100.515 281.14C100.085 280.892 99.3053 280.639 98.779 280.583C97.6151 280.457 94.0625 278.813 94.0625 278.398C94.0625 277.953 96.3246 278.039 96.608 278.494C96.7446 278.712 97.0027 278.798 97.19 278.681C97.3772 278.565 97.6404 278.651 97.772 278.868C97.9086 279.086 98.4248 279.268 98.9258 279.268C100.312 279.273 102.666 280.381 102.666 281.038ZM125.742 286.248C120.616 284.817 120.181 284.65 120.702 284.331C121.005 284.144 121.4 284.164 121.613 284.377C121.82 284.584 122.837 284.751 123.88 284.751C125.687 284.751 127.696 285.596 127.701 286.36C127.696 286.759 127.544 286.749 125.742 286.248ZM133.93 287.488C133.703 287.488 133.627 287.31 133.758 287.098C133.89 286.881 134.077 286.709 134.173 286.709C134.275 286.709 134.345 286.886 134.345 287.098C134.345 287.31 134.158 287.488 133.93 287.488ZM139.649 287.69C138.758 288.363 138.642 288.373 137.868 287.872C137.544 287.665 136.896 287.493 136.425 287.488C135.955 287.482 135.479 287.336 135.368 287.154C135.256 286.972 136.172 286.86 137.397 286.896C140.418 286.997 140.519 287.032 139.649 287.69ZM142.169 287.877C141.982 287.877 141.714 287.7 141.582 287.488C141.451 287.27 141.714 287.098 142.169 287.098C142.625 287.098 142.888 287.275 142.756 287.488C142.625 287.7 142.356 287.877 142.169 287.877ZM254.445 242.465C254.005 243.264 252.583 244.478 252.087 244.478C251.419 244.478 249.713 246.613 249.931 247.179C250.164 247.791 245.473 252.531 243.135 254.048C242.35 254.554 240.68 255.935 239.425 257.108C238.17 258.287 236.495 259.572 235.711 259.976C234.921 260.376 233.899 261.054 233.433 261.484C231.961 262.849 231.288 263.34 229.83 264.104C227.3 265.434 226.632 265.854 225.751 266.668C225.275 267.108 224.091 267.867 223.125 268.353C222.158 268.838 221.095 269.46 220.771 269.739C219.83 270.533 211.683 275.363 211.283 275.363C211.085 275.363 210.458 275.692 209.886 276.097C209.314 276.501 207.528 277.27 205.913 277.811C204.299 278.353 201.834 279.309 200.438 279.941C196.905 281.539 196.086 281.802 191.637 282.788C189.486 283.269 186.141 284.154 184.208 284.766C182.27 285.373 179.719 285.99 178.535 286.132C174.917 286.572 174.745 286.602 173.925 287.042C173.485 287.275 171.653 287.573 169.846 287.705L166.562 287.943L166.724 286.547C166.87 285.292 167.032 285.125 168.313 284.893C169.097 284.751 170.023 284.488 170.367 284.311C170.716 284.134 172.204 283.876 173.682 283.744C175.155 283.613 176.688 283.33 177.088 283.117C177.483 282.905 178.849 282.652 180.119 282.551C181.389 282.45 183.09 282.09 183.894 281.757C184.699 281.418 186.582 280.826 188.069 280.431C189.557 280.042 190.883 279.577 191.015 279.4C191.536 278.686 198.788 275.874 199.112 276.258C199.319 276.506 198.454 278.1 198.11 278.1C197.887 278.1 197.705 278.363 197.705 278.686C197.705 279.491 198.004 279.42 200.443 278.034C200.767 277.852 201.293 277.604 201.617 277.477C201.941 277.356 202.553 277.068 202.978 276.835C203.666 276.461 206.384 275.439 211.789 273.522C212.755 273.178 214.015 272.571 214.587 272.177C215.159 271.777 215.817 271.453 216.055 271.453C216.293 271.453 216.485 271.302 216.485 271.119C216.485 270.937 217.629 270.29 219.026 269.678C221.693 268.52 221.763 268.454 221.217 267.594C220.938 267.154 220.25 267.28 217.431 268.267C215.534 268.934 213.919 269.41 213.843 269.334C213.768 269.258 214.496 268.692 215.468 268.074C216.44 267.457 217.239 266.78 217.259 266.562C217.305 265.879 221.308 263.598 221.606 264.089C221.92 264.6 225.544 264.225 226.799 263.552C227.234 263.32 228.656 262.298 229.957 261.286C231.257 260.275 232.73 259.228 233.231 258.97C234.369 258.373 235.189 257.67 237.467 255.338C238.458 254.321 240.255 252.743 241.465 251.828C243.889 249.992 244.896 249.162 246.809 247.412C250.341 244.185 251.601 243.305 252.704 243.305C253.003 243.305 253.246 243.062 253.246 242.764C253.246 242.465 253.595 242.131 254.02 242.02C254.653 241.858 254.734 241.944 254.445 242.465ZM289.333 152.36C289.227 152.547 289.075 155.956 289.01 159.942C288.888 166.927 288.711 168.414 287.39 173.523C287.056 174.813 286.555 177.099 286.272 178.607C285.396 183.321 284.946 185.167 284.141 187.306C283.716 188.45 283.362 190.038 283.362 190.837C283.362 191.636 282.922 193.518 282.39 195.025C281.859 196.532 281.419 198.055 281.413 198.414C281.408 198.773 281.14 199.608 280.816 200.27C279.46 203.057 278.954 204.069 278.463 204.995C277.056 207.63 274.364 213.487 274.364 213.907C274.364 215.02 272.132 218.009 271.565 217.66C271.378 217.544 271.333 217.281 271.459 217.073C271.586 216.866 271.474 215.839 271.206 214.797C270.69 212.784 270.7 212.749 273.068 208.358C273.407 207.736 273.721 206.765 273.777 206.209C273.833 205.652 274.075 204.696 274.313 204.094C274.556 203.487 274.754 202.734 274.754 202.42C274.754 202.107 275.548 200.336 276.515 198.485C277.481 196.634 278.276 194.813 278.276 194.438C278.276 194.064 278.539 193.538 278.863 193.27C279.202 192.987 279.45 192.137 279.45 191.242C279.45 190.392 279.632 189.36 279.855 188.945C280.077 188.531 280.67 186.563 281.176 184.575C281.682 182.582 282.37 180.301 282.704 179.502C283.038 178.703 283.433 177.21 283.584 176.179C283.731 175.147 283.994 174.13 284.166 173.913C284.333 173.695 284.43 168.682 284.374 162.77C284.258 150.999 283.716 145.855 282.066 140.883C281.53 139.27 280.968 136.806 280.811 135.41C280.654 134.014 280.381 132.477 280.199 131.996C280.017 131.515 279.759 130.281 279.632 129.26C279.501 128.233 279.242 126.781 279.055 126.027C278.868 125.274 278.605 123.448 278.478 121.966C278.352 120.484 277.987 118.658 277.679 117.909C277.365 117.161 277.112 116.053 277.112 115.446C277.112 114.839 276.955 114.247 276.763 114.126C276.57 114.004 276.287 112.639 276.13 111.091C275.973 109.538 275.695 108 275.513 107.666C275.325 107.338 274.84 106.098 274.43 104.915C271.621 96.7864 270.078 93.1851 269.415 93.1851C269.131 93.1851 268.903 92.922 268.903 92.5983C268.903 92.2746 268.595 91.703 268.22 91.3237C267.841 90.9443 267.309 90.1957 267.031 89.6646C265.594 86.8978 262.886 82.6338 262.562 82.6338C262.39 82.6338 262.254 82.391 262.254 82.0977C262.254 81.7993 262.006 81.3541 261.702 81.1012C261.399 80.8483 260.321 79.4219 259.308 77.9247C258.296 76.4326 257.259 75.2085 257.001 75.2085C256.743 75.2085 256.252 74.6167 255.903 73.8934C255.493 73.0335 254.926 72.5075 254.268 72.3861C253.711 72.2799 253.261 72.3456 253.261 72.5277C253.261 72.7149 253.013 72.8666 252.714 72.8666C251.834 72.8666 251.702 73.8631 252.406 75.1529C252.765 75.8104 254.01 78.213 255.164 80.4841C256.318 82.7552 257.583 84.8392 257.977 85.1123C258.367 85.3855 259.066 86.5691 259.526 87.7425C259.987 88.916 260.594 90.1401 260.872 90.4587C261.151 90.7825 261.601 91.7486 261.869 92.6084C262.137 93.4683 262.578 94.4344 262.841 94.7581C264.081 96.2756 268.934 108.005 269.475 110.787C269.536 111.111 269.688 111.637 269.814 111.961C269.941 112.285 270.336 114.045 270.69 115.871C271.049 117.697 271.672 120.514 272.077 122.128C272.481 123.741 272.815 125.714 272.815 126.518C272.82 127.322 273.185 129.168 273.63 130.625C274.501 133.468 274.804 134.621 275.72 138.491C276.044 139.856 276.489 141.192 276.712 141.46C276.94 141.728 277.026 142.041 276.909 142.153C276.798 142.264 276.884 143.129 277.102 144.07C277.319 145.011 277.577 147.196 277.674 148.915C277.77 150.64 278.139 152.916 278.498 153.973C279.015 155.491 279.151 157.367 279.146 162.825C279.136 171.712 278.625 175.936 277.142 179.401C276.687 180.468 275.553 185.582 275.553 186.568C275.553 187.008 275.386 187.468 275.189 187.595C274.986 187.721 274.617 188.824 274.359 190.053C274.106 191.282 273.448 193.26 272.906 194.443C272.365 195.632 271.834 197.347 271.727 198.262C271.621 199.178 271.388 199.921 271.201 199.921C271.014 199.921 270.862 200.26 270.862 200.67C270.862 201.085 270.695 201.474 270.487 201.55C270.28 201.621 269.951 202.719 269.754 203.983C269.546 205.329 269.146 206.421 268.802 206.618C268.473 206.8 268.099 207.392 267.962 207.933C267.826 208.475 267.471 208.915 267.173 208.915C266.181 208.915 265.128 211.307 265.305 213.143C265.437 214.484 265.665 214.904 266.404 215.187C266.92 215.384 267.34 215.693 267.34 215.87C267.34 217.382 264.364 224.6 263.443 225.333C263.306 225.44 262.77 226.143 262.254 226.896C261.166 228.474 256.454 233.153 255.948 233.153C255.761 233.153 255.604 233.371 255.594 233.644C255.584 233.912 254.84 234.701 253.934 235.389C251.515 237.235 248.372 239.521 247.33 240.194C246.829 240.518 244.977 242.233 243.216 244.008C241.449 245.783 239.82 247.235 239.587 247.235C239.354 247.235 239.061 247.503 238.934 247.837C238.808 248.166 238.236 248.677 237.664 248.975C235.959 249.855 232.689 252.769 231.713 254.271C231.131 255.171 231.004 255.207 230.068 254.706C228.853 254.058 227.619 254.468 224.663 256.501C223.626 257.215 222.674 257.796 222.548 257.796C222.421 257.796 221.009 258.59 219.415 259.557C217.821 260.523 216.338 261.317 216.116 261.317C215.898 261.317 215.721 261.489 215.721 261.701C215.721 261.914 215.296 262.192 214.78 262.318C214.263 262.45 213.439 262.981 212.953 263.497C212.467 264.018 211.839 264.443 211.566 264.443C211.293 264.443 210.625 264.883 210.088 265.419C209.552 265.955 208.732 266.395 208.267 266.395C207.801 266.395 206.607 266.815 205.61 267.331C200.483 269.976 197.968 270.953 194.213 271.737C193.677 271.848 192.68 272.187 192.002 272.49C191.323 272.794 190.635 273.042 190.468 273.042C190.301 273.042 189.891 273.274 189.552 273.557C188.621 274.331 183.646 276.112 182.088 276.223C181.334 276.279 180.499 276.486 180.236 276.683C179.967 276.876 179.471 276.931 179.127 276.8C178.783 276.668 178.125 276.825 177.665 277.149C177.204 277.472 176.379 277.735 175.828 277.735C175.276 277.735 174.431 278.014 173.95 278.353C173.383 278.747 172.68 278.884 171.971 278.727C171.354 278.59 170.089 278.752 169.097 279.091C168.12 279.425 166.901 279.688 166.395 279.688C165.317 279.678 160.63 280.31 157.255 280.922C155.965 281.155 154.117 281.398 153.146 281.473C149.831 281.716 137.23 282.035 137.073 281.883C136.987 281.802 135.504 281.63 133.784 281.504C127.63 281.059 117.66 279.627 115.813 278.924C115.282 278.722 113.035 278.282 110.818 277.938C108.602 277.599 105.884 277.128 104.771 276.891C103.658 276.653 102.473 276.567 102.129 276.699C101.74 276.845 101.512 276.724 101.512 276.375C101.512 275.798 99.9126 275.247 96.8307 274.761C95.8692 274.61 94.5483 274.175 93.8955 273.79C92.3722 272.895 89.5788 272.424 89.2144 273.011C89.0676 273.249 88.6071 273.446 88.1871 273.446C87.767 273.446 87.428 273.623 87.428 273.836C87.428 274.048 87.6051 274.225 87.8176 274.225C88.0302 274.225 88.2073 274.453 88.2073 274.731C88.2073 275.009 88.8247 275.459 89.5737 275.732C90.3277 276.006 90.9401 276.37 90.9401 276.547C90.9401 276.724 91.4664 277.083 92.1141 277.351C93.1718 277.791 93.7285 278.525 92.9947 278.525C92.4228 278.519 90.1607 276.967 90.1607 276.577C90.1607 276.36 89.8925 276.183 89.5686 276.183C89.2447 276.183 88.6729 276.026 88.2984 275.839C86.6385 274.999 84.6092 274.225 84.0677 274.225C83.7438 274.225 82.5242 273.522 81.3602 272.662C80.1963 271.802 79.0576 271.099 78.835 271.099C78.6123 271.099 78.425 270.917 78.425 270.7C78.425 270.477 78.0303 270.138 77.5445 269.946C77.0587 269.754 75.6113 268.793 74.3158 267.811C73.0253 266.83 71.7854 266.026 71.5628 266.021C71.0466 266.016 67.9242 262.779 66.4768 260.74C65.8645 259.88 62.9343 256.775 59.9637 253.841C56.9931 250.907 54.564 248.312 54.564 248.085C54.564 247.852 54.0782 247.412 53.4861 247.104C52.3828 246.527 51.8161 245.95 46.6896 240.219C42.7979 235.864 42.5145 235.323 43.5722 234.195C44.301 233.416 44.3263 233.249 43.8151 232.572C43.5014 232.157 43.2382 231.368 43.2281 230.816C43.218 230.27 43.0662 229.653 42.884 229.446C42.7018 229.243 42.0793 227.61 41.5024 225.824C39.7211 220.311 38.6634 218.849 35.1007 216.932C33.9721 216.325 33.046 215.602 33.046 215.328C33.046 215.055 32.4792 214.681 31.7859 214.504C30.4752 214.165 30.2374 213.801 27.8184 208.465C27.2617 207.235 26.6949 205.784 26.5583 205.237C26.4216 204.691 26.1534 204.15 25.9611 204.029C25.7688 203.912 25.6119 203.477 25.6119 203.062C25.6119 202.117 24.3063 197.913 22.8286 194.084C22.2061 192.471 21.7 191.024 21.7 190.872C21.7 190.716 20.9156 188.586 19.9592 186.138C18.9976 183.69 18.1373 181.262 18.0412 180.751C17.945 180.24 17.6009 179.117 17.2719 178.258C16.5786 176.442 15.3641 170.326 14.4785 164.186C14.1394 161.819 13.6839 158.829 13.4714 157.539C13.2588 156.25 13.0564 152.203 13.021 148.546C12.8945 135.506 13.8357 126.063 15.0604 128.035C15.2578 128.349 15.3337 129.224 15.2325 129.978C15.1313 130.731 14.9795 132.052 14.8985 132.911C14.8175 133.771 14.5341 135.415 14.276 136.558C14.0179 137.707 13.9117 139.199 14.0432 139.882C15.1718 145.688 15.4248 147.287 15.2578 147.56C14.5948 148.632 14.4127 154.029 15.0149 154.752C16.0877 156.047 18.0766 163.953 17.5452 164.838C17.4592 164.985 17.3681 166.002 17.3428 167.094C17.3124 168.505 17.4997 169.31 18.0007 169.861C18.3853 170.286 18.6029 170.736 18.4764 170.863C18.0918 171.247 19.3569 173.857 20.9612 175.991C21.8012 177.109 22.4895 178.182 22.4895 178.374C22.4895 178.566 22.8437 179.042 23.2739 179.431C23.704 179.82 24.0583 180.362 24.0583 180.635C24.0583 181.323 25.2121 182.42 25.6524 182.147C25.8498 182.026 26.0117 182.218 26.0117 182.577C26.0117 183.093 26.2344 183.174 27.0846 182.962C28.5016 182.607 28.8204 182.056 28.5724 180.407C28.4611 179.654 28.3649 178.758 28.3649 178.409C28.3599 178.065 27.9398 177.155 27.4236 176.396C26.9075 175.637 26.3609 174.626 26.2091 174.15C26.0573 173.675 25.5309 172.689 25.0299 171.955C24.1038 170.589 23.2941 166.679 23.3498 163.791C23.3903 161.444 22.9348 159.107 21.4824 154.211C20.8195 151.981 20.4146 135.35 20.946 132.32C21.1535 131.136 21.3863 128.632 21.4622 126.761C21.533 124.884 21.7962 123.109 22.0441 122.81C22.2921 122.512 22.5199 121.495 22.5452 120.555C22.5755 119.609 22.8387 118.243 23.1322 117.52C23.4257 116.796 23.6686 115.871 23.6686 115.466C23.6686 115.061 23.8002 114.733 23.9621 114.728C24.2708 114.723 25.8042 110.266 25.8447 109.26C25.8599 108.936 26.1028 108.147 26.3862 107.5C26.6696 106.857 26.9581 105.891 27.0289 105.355C27.0998 104.819 27.3174 104.03 27.5198 103.595C27.7222 103.16 28.1018 102.017 28.37 101.045C28.6382 100.079 29.0785 98.7591 29.3467 98.1117C29.6149 97.4642 30.0451 96.2806 30.3032 95.4764C30.5613 94.6722 30.9307 93.9134 31.1331 93.792C31.3305 93.6706 31.4975 93.2407 31.4975 92.8462C31.4975 91.8851 33.4762 88.1067 34.1088 87.869C34.3821 87.7628 35.0905 86.7309 35.6776 85.5675C36.2646 84.4092 37.6361 82.5226 38.719 81.3744C39.802 80.2262 41.3101 78.4508 42.0591 77.424C42.8131 76.3972 43.9973 74.9 44.6906 74.0907C45.3839 73.2814 45.8394 72.5075 45.7028 72.3709C45.5611 72.2293 45.7483 72.118 46.1127 72.118C47.1704 72.118 47.6562 70.3123 46.8566 69.3765C45.8343 68.1828 45.0196 68.4307 42.97 70.55C41.9326 71.6223 40.8142 72.5024 40.4802 72.5024C39.6603 72.5075 32.8183 79.1185 32.4944 80.2262C32.3527 80.7118 32.0238 81.1113 31.7708 81.1164C31.3305 81.1265 29.9287 83.0537 28.0107 86.2858C27.5299 87.0951 26.9834 87.7527 26.7911 87.7527C26.5988 87.7527 26.3305 88.1775 26.199 88.6985C25.9054 89.8619 24.4682 91.3085 24.4682 90.4385C24.4682 89.8973 26.7151 84.3283 27.54 82.8159C27.7576 82.4113 28.4105 80.7927 28.9874 79.2196C29.5643 77.6465 30.2779 76.2606 30.5764 76.1493C30.875 76.0381 31.037 75.8155 30.9408 75.6587C30.7029 75.2743 31.5734 72.5075 31.9327 72.5075C32.0896 72.5075 32.8335 71.5819 33.5875 70.4539C34.3365 69.3259 35.546 67.854 36.2646 67.1914C36.9883 66.5237 38.1927 65.2036 38.9468 64.2577C39.7008 63.3118 41.2393 61.6224 42.3678 60.4995C43.4963 59.3817 44.4224 58.3751 44.4224 58.2689C44.4224 57.9098 52.0337 50.3681 53.0913 49.6802C53.6632 49.3059 54.5438 48.4005 55.0448 47.662C55.5508 46.9235 56.4516 46.1193 57.0488 45.8715C57.651 45.6236 58.3595 45.1026 58.6328 44.7182C58.901 44.3338 59.5791 43.8077 60.1409 43.5548C60.6975 43.3019 61.3655 42.7 61.6236 42.2195C61.8817 41.739 62.7623 41.0511 63.5821 40.6869C64.9535 40.0799 66.1377 39.2807 69.2602 36.8427C69.9079 36.3369 70.9201 35.6794 71.5071 35.3809C72.0992 35.0825 72.585 34.688 72.585 34.5109C72.585 34.3339 72.8583 34.1872 73.1872 34.1872C73.7996 34.1872 76.1933 32.6698 76.4311 32.1336C76.502 31.9718 76.75 31.8402 76.9827 31.8402C77.2155 31.8402 78.3086 31.1574 79.4169 30.3228C81.6183 28.6587 85.1456 26.7568 86.0262 26.7568C86.3349 26.7568 86.6891 26.4837 86.8156 26.1549C86.9421 25.8211 87.7114 25.2748 88.5211 24.941C89.3308 24.6071 90.8743 23.9344 91.9471 23.4438C93.0251 22.9531 94.7811 22.3259 95.859 22.0477C96.937 21.7695 98.1768 21.3042 98.6222 21.0209C99.3762 20.5404 100.682 20.1965 105.049 19.3265C106.016 19.1343 107.423 18.7751 108.177 18.5273C109.634 18.0468 111.836 17.5511 115.024 16.9846C119.351 16.2157 121.102 15.8465 121.461 15.6239C121.668 15.4975 123.035 15.3002 124.492 15.1889C125.955 15.0777 129.523 14.6376 132.427 14.2077C135.332 13.7777 139.32 13.2668 141.289 13.0696C143.257 12.8723 146.071 12.5031 147.549 12.2502C154.548 11.0463 179.633 11.8657 192.275 13.7069C196.389 14.3088 203.864 16.5142 206.273 17.8394C206.976 18.2289 207.71 18.5475 207.897 18.5475C208.084 18.5475 209.152 19.1646 210.271 19.9183C211.389 20.6719 212.609 21.289 212.983 21.289C213.965 21.289 218.484 23.6158 218.484 24.1216C218.484 24.3593 218.595 24.4352 218.727 24.3037C218.97 24.0609 220.741 24.9207 222.983 26.3724C223.626 26.7922 224.638 27.4043 225.23 27.7381C225.822 28.072 226.308 28.5272 226.308 28.7447C226.308 28.9672 226.88 29.3871 227.578 29.6804C228.276 29.9738 229.729 31.2181 230.807 32.4472C231.885 33.6763 234.921 36.8073 237.553 39.4021C240.189 41.9969 242.345 44.2832 242.345 44.4805C242.345 44.6777 243.489 45.9726 244.886 47.3585C246.282 48.7445 247.426 49.9483 247.426 50.0444C247.426 50.267 248.393 51.4152 250.64 53.8734C251.657 54.9811 253.195 56.6806 254.061 57.6467C254.926 58.6128 256.702 60.5501 258.003 61.9461C259.303 63.3422 260.467 64.89 260.594 65.3756C260.715 65.8662 261.151 66.4428 261.56 66.6654C261.97 66.8829 262.724 67.7124 263.241 68.5116C263.757 69.3108 264.647 70.4539 265.224 71.0558C265.801 71.6577 267.061 73.8226 268.033 75.8711C269.005 77.9197 270.042 79.685 270.346 79.8013C270.649 79.9176 270.892 80.1705 270.892 80.3577C270.892 80.5499 271.403 81.8043 272.031 83.1498C273.833 87.0192 275.599 91.2731 276.368 93.6099C276.758 94.7935 277.304 96.2908 277.577 96.9331C278.033 98.0004 278.934 102.118 279.237 104.556C279.303 105.092 279.541 105.886 279.764 106.316C279.986 106.746 280.28 107.712 280.422 108.466C280.786 110.428 282.679 116.412 283.073 116.852C283.256 117.054 283.407 117.545 283.407 117.934C283.407 118.324 283.559 118.951 283.751 119.32C284.541 120.878 285.422 124.151 285.578 126.108C285.669 127.262 285.852 128.648 285.978 129.184C286.105 129.72 286.292 131.303 286.393 132.704C286.494 134.1 286.737 135.597 286.93 136.027C287.385 137.039 288.129 142.122 287.881 142.522C287.775 142.694 287.891 143.938 288.134 145.294C288.377 146.649 288.625 148.283 288.681 148.931C288.736 149.578 288.964 150.544 289.182 151.08C289.354 151.586 289.445 152.178 289.333 152.36Z" fill="#231F20"/>
<path id="Vector_34" d="M30.3891 167.762C30.88 168.354 30.8192 168.354 32.054 167.787C32.6057 167.534 33.1573 166.947 33.2737 166.482C33.4913 165.617 33.4305 164.995 32.5905 159.254C32.3223 157.428 32.0945 152.198 32.0844 147.641C32.0642 140.079 32.1249 139.305 32.7727 138.834C33.3546 138.41 33.4103 138.126 33.0763 137.256C32.7119 136.3 32.4791 136.194 30.7788 136.194C29.0227 136.194 28.8405 136.285 28.2687 137.489C27.9296 138.202 27.7019 139.487 27.7677 140.362C27.8334 141.227 27.7575 142.142 27.6057 142.395C27.4539 142.648 27.4741 143.948 27.6513 145.294C27.8284 146.634 27.9701 149.993 27.96 152.759C27.9498 155.526 28.1168 158.339 28.3243 159.016C28.5369 159.694 28.9974 161.829 29.3466 163.761C29.7008 165.683 30.1664 167.489 30.3891 167.762Z" fill="#231F20"/>
<path id="Vector_35" d="M69.7006 148.5C69.4931 147.858 69.2097 146.538 69.0781 145.572C68.8048 143.639 68.3443 143.361 66.0822 143.786C64.8727 144.014 64.7462 144.181 64.3464 146.098C63.9922 147.797 64.0225 148.369 64.5134 149.31C64.8423 149.942 65.1106 150.928 65.1106 151.51C65.1106 152.092 65.3029 153.457 65.5357 154.545C65.8595 156.057 66.2087 156.654 66.9982 157.069C67.9648 157.575 68.1065 157.534 69.1136 156.482C70.0903 155.46 70.3635 154.889 70.2471 154.1C70.2218 153.953 70.1763 152.896 70.1409 151.753C70.1105 150.61 69.9081 149.148 69.7006 148.5Z" fill="#231F20"/>
<path id="Vector_36" d="M46.72 201.09C47.7422 203.776 48.7999 206.856 49.0732 207.934C49.3464 209.011 49.9183 210.194 50.3434 210.574H50.3383C51.2391 211.368 52.0337 211.454 52.4436 210.796C52.899 210.068 52.9648 206.421 52.5347 205.905C52.3221 205.647 51.9071 204.504 51.6136 203.366C51.1025 201.373 49.7968 197.448 49.1086 195.819C48.9264 195.389 48.4558 193.983 48.056 192.693C47.6612 191.404 47.1299 189.997 46.8819 189.567C46.6339 189.138 46.3202 187.398 46.1886 185.698C46.057 183.999 45.804 182.415 45.6268 182.178C44.8779 181.171 44.3111 178.333 43.6987 172.557C43.2989 168.799 43.5216 157.099 44.0327 155.223C44.2757 154.328 44.5439 152.628 44.635 151.444C44.8627 148.445 45.5358 143.984 45.8394 143.498C45.976 143.276 46.1633 142.112 46.2443 140.919C46.3303 139.72 46.5631 138.577 46.7655 138.369C46.9629 138.167 47.1299 137.509 47.1299 136.907C47.1299 134.075 49.7665 127.449 53.7543 120.266C54.3818 119.138 54.9486 117.97 55.0194 117.676C55.1814 116.994 58.0255 113.59 60.819 110.742C63.7997 107.702 65.5102 105.699 65.5102 105.254C65.5102 105.046 66.0365 104.318 66.6843 103.63C67.327 102.942 67.8583 102.264 67.8583 102.118C67.8634 101.708 70.3128 99.3105 71.1832 98.8552C72.8229 98.0105 72.0941 95.5371 70.2116 95.5371C69.1944 95.5371 68.0456 96.5487 61.1024 103.549C53.7593 110.954 50.647 114.454 50.647 115.299C50.647 115.613 50.5003 115.866 50.313 115.866C50.1308 115.866 49.6501 116.614 49.2402 117.525C48.8303 118.44 47.9244 120.064 47.226 121.131C46.5276 122.203 45.9507 123.387 45.9507 123.772C45.9507 124.151 45.809 124.464 45.6319 124.464C45.0196 124.464 42.8232 131.571 42.2514 135.41C42.1046 136.376 41.8111 137.737 41.5986 138.43C41.381 139.123 41.1482 140.18 41.0621 140.777C40.9812 141.374 40.551 144.677 40.1057 148.116C39.6553 151.556 39.2049 154.813 39.0986 155.349C38.4255 158.774 38.714 172.097 39.5237 174.803C39.6047 175.076 39.7008 175.425 39.7261 175.587C39.7565 175.744 39.9336 176.27 40.1158 176.755C40.298 177.241 40.5409 178.647 40.6573 179.881C40.7737 181.12 41.0267 182.572 41.2241 183.108C41.6492 184.277 42.4234 187.008 43.8252 192.294C44.3971 194.444 45.6977 198.399 46.72 201.09Z" fill="#231F20"/>
<path id="Vector_37" d="M30.0247 130.909L30.3587 129.538C30.5459 128.784 30.718 127.641 30.7433 126.999C30.7737 126.351 30.9002 125.648 31.0267 125.436C31.1532 125.218 31.2898 124.783 31.3303 124.459C32.2362 117.044 32.2868 115.653 31.6745 114.824C30.8648 113.731 30.2878 114.596 30.1816 117.064C30.131 118.228 29.9791 119.356 29.8425 119.568C29.7059 119.786 29.5793 121.511 29.5591 123.407C29.5389 125.304 29.4225 127.246 29.3061 127.722C29.1846 128.197 29.301 129.113 29.5591 129.745L30.0247 130.909Z" fill="#231F20"/>
<path id="Vector_38" d="M38.1268 201.662C38.1268 201.358 37.6865 200.149 37.1501 198.971C36.6136 197.797 36.1734 196.507 36.1734 196.103C36.1734 195.703 36.0013 195.202 35.7938 194.995C35.5813 194.788 35.1764 193.563 34.8829 192.279C34.3869 190.094 34.2807 189.937 33.2078 189.901C31.7908 189.851 30.303 190.776 30.303 191.712C30.303 192.097 30.6319 193.088 31.0368 193.918C31.4416 194.742 31.9781 196.3 32.2311 197.377C32.7827 199.724 34.7108 203.933 36.0215 205.668C36.7857 206.674 37.1349 206.861 37.813 206.613C38.4709 206.371 38.6885 205.91 38.8049 204.514C38.8909 203.513 38.7745 202.618 38.5417 202.471C38.314 202.329 38.1268 201.965 38.1268 201.662Z" fill="#231F20"/>
<path id="Vector_39" d="M35.7788 120.706C35.7788 120.56 36.4114 119.482 37.1907 118.314C38.8355 115.84 40.4751 111.865 40.4751 110.362C40.4751 109.786 40.7383 109.093 41.0622 108.825C41.386 108.557 41.6492 107.94 41.6492 107.454C41.6492 106.903 42.1654 106.179 43.0206 105.527C43.7747 104.955 44.387 104.232 44.387 103.923C44.387 103.615 45.0904 102.917 45.9508 102.376C46.8111 101.834 47.5145 101.141 47.5145 100.833C47.5145 100.529 47.8688 100.165 48.2989 100.029C48.7291 99.8921 49.0783 99.5279 49.0783 99.2143C49.0783 98.9057 49.6957 97.7727 50.4497 96.7055C51.2037 95.6331 51.8161 94.5052 51.8161 94.1916C51.8161 93.878 52.4335 92.9523 53.1825 92.1329C53.9314 91.3135 54.5539 90.4688 54.559 90.2564C54.5792 89.2903 57.4233 85.8558 63.2178 79.8012C66.6641 76.1999 69.6549 73.251 69.8675 73.251C70.08 73.251 70.4748 73.0335 70.743 72.7603C71.0112 72.4923 71.8006 71.8296 72.494 71.2935C73.1873 70.7573 74.4929 69.6597 75.3988 68.8555C76.3046 68.0512 77.2307 67.3937 77.4585 67.3886C77.6862 67.3836 78.2176 67.07 78.6325 66.6855C79.0475 66.3011 80.1811 65.5778 81.1477 65.0771C82.1143 64.5763 82.9948 64.0351 83.1062 63.8732C83.2124 63.7114 84.5333 62.9223 86.0414 62.1181C87.5494 61.3138 89.0423 60.4236 89.3662 60.1403C89.6901 59.8571 91.8004 58.6634 94.0575 57.4899C96.3145 56.3164 99.3965 54.6928 100.899 53.8835C106.158 51.061 109.528 49.4879 113.025 48.2234C114.958 47.5254 116.987 46.7212 117.524 46.4379C119.168 45.573 124.669 43.6458 126.324 43.3474C127.185 43.1957 128.065 42.9276 128.278 42.7607C129.31 41.9412 138.126 40.4086 144.118 40.004C147.665 39.7663 150.939 39.3919 151.39 39.1745C152.215 38.7749 157.392 39.1745 162.063 40.004C163.222 40.2114 167.002 40.4592 170.474 40.5553C176.222 40.7222 178.955 41.0662 181.668 41.9716C182.204 42.1537 184.142 42.3914 185.969 42.4976C189.674 42.7202 195.681 43.8178 196.43 44.4096C196.698 44.622 198.105 44.9255 199.562 45.0823C202.432 45.3959 205.873 46.8173 207.715 48.4409C209.183 49.7409 210.185 50.1253 212.735 50.3731C214.931 50.5856 215.402 50.3327 215.797 48.7242C215.974 47.9907 215.655 47.6822 213.651 46.6352C212.356 45.9624 210.918 45.0065 210.463 44.5108C209.375 43.3373 204.927 40.9347 203.186 40.5857C202.432 40.4339 201.531 40.0596 201.187 39.7561C200.473 39.1289 199.901 38.9873 195.757 38.4006C194.142 38.1729 192.381 37.915 191.845 37.8239C191.308 37.7329 189.633 37.566 188.13 37.4496C186.622 37.3333 184.689 36.9893 183.829 36.6757C182.968 36.3621 181.728 36.0536 181.071 35.9828C180.418 35.912 179.704 35.745 179.492 35.6135C179.279 35.482 178.13 35.3758 176.936 35.3758C174.988 35.3758 172.751 35.1381 166.617 34.2883C165.539 34.1366 163.955 34.0556 163.095 34.1012C161.349 34.1922 154.173 33.3576 154.436 33.0946C154.629 32.9024 156.941 32.7152 163.095 32.3966C177.574 31.648 184.648 31.5013 186.172 31.9059C186.819 32.0779 188.646 32.2752 190.235 32.346C192.244 32.437 193.221 32.6444 193.439 33.039C193.631 33.3829 194.481 33.6459 195.62 33.7016C196.647 33.7522 197.71 33.9848 197.983 34.2074C198.257 34.435 200.382 34.6677 202.705 34.7334C207.507 34.8599 209.815 35.4163 211.065 36.7466C211.991 37.7278 213.358 37.9858 213.358 37.1765C213.358 36.9084 212.482 36.2863 211.419 35.7956C210.352 35.305 209.365 34.7233 209.228 34.5008C209.091 34.2782 208.56 33.9393 208.044 33.742C207.523 33.5448 207.199 33.1654 207.305 32.8822C207.502 32.3713 204.921 31.0157 203.747 31.0157C203.413 31.0157 202.669 30.7729 202.087 30.4745C201.506 30.1761 200.326 29.8372 199.466 29.7208C197.371 29.4376 196.141 29.038 196.141 28.6536C196.141 28.0921 200.913 29.1139 201.85 29.8776C202.082 30.0698 202.371 30.1356 202.482 30.0193C202.594 29.908 203.459 30.0698 204.4 30.3784C205.341 30.6869 206.875 31.0663 207.801 31.213C210.134 31.5873 213.059 32.6596 216.212 34.3085C217.953 35.219 219.415 35.7046 220.417 35.7046C221.262 35.7046 221.951 35.6388 221.951 35.5579C221.951 35.477 221.677 34.7587 221.343 33.9595C220.807 32.6798 217.907 29.4528 217.29 29.4477C217.163 29.4477 216.531 28.9925 215.888 28.4361C214.137 26.9288 212.548 26.342 203.763 23.9748C202.254 23.5702 199.967 22.9531 198.677 22.6041C192.806 21.0209 188.247 20.4797 179.122 20.2925C175.251 20.2116 170.059 19.9536 167.584 19.7159C157.042 18.7043 147.098 18.4665 141.182 19.0836C139.892 19.2202 137.868 19.4124 136.683 19.5136C135.499 19.6147 134.006 19.7968 133.359 19.9182C132.716 20.0396 131.658 20.1863 131.01 20.2419C130.368 20.3026 128.779 20.7174 127.488 21.1726C126.198 21.6228 123.359 22.2551 121.183 22.5737C119.007 22.8924 116.542 23.4488 115.707 23.8028C114.872 24.162 113.435 24.7841 112.514 25.1888C111.593 25.5934 110.449 25.9272 109.973 25.9323C108.986 25.9374 106.238 26.8428 104.558 27.7077C103.941 28.0264 102.731 28.3299 101.871 28.3754C101.011 28.426 100.302 28.5979 100.302 28.7598C100.302 29.0481 95.2366 31.5063 92.4785 32.5635C91.7245 32.8518 90.9401 33.2312 90.7377 33.4133C90.5352 33.5954 89.9735 33.742 89.4877 33.742C89.0069 33.742 88.516 33.8938 88.3996 34.086C88.2832 34.2731 87.261 34.7284 86.1274 35.0976C84.9938 35.4669 83.7185 36.0789 83.2833 36.4684C82.8531 36.8528 82.0637 37.2979 81.5222 37.4547C80.3734 37.7835 76.8562 40.0647 76.8411 40.4896C76.836 40.6514 77.1396 40.788 77.5141 40.788C78.091 40.793 78.1062 40.8537 77.6255 41.1572C77.1346 41.4658 77.1548 41.5619 77.752 41.7895C78.5668 42.1031 80.7024 41.481 84.1487 39.9382C88.4351 38.0161 89.4269 37.652 90.353 37.652C90.849 37.652 91.3551 37.5002 91.4664 37.3131C91.5828 37.1259 92.3419 36.8831 93.1516 36.7718C93.9613 36.6606 95.859 35.9878 97.3671 35.2797C98.8752 34.5716 100.191 33.9697 100.302 33.9444C100.409 33.9191 100.94 33.7623 101.476 33.6004C115.403 29.3212 117.903 28.6333 120.251 28.431C121.436 28.3299 124.072 27.819 126.117 27.298C128.161 26.777 131.506 26.1599 133.546 25.9222C135.59 25.6845 137.979 25.2596 138.86 24.9713C139.922 24.6223 140.676 24.5767 141.122 24.8246C141.491 25.032 142.351 25.0724 143.045 24.9207C145.003 24.4857 153.556 24.3845 154.861 24.7841C155.509 24.9814 157.705 25.2191 159.75 25.3102C161.794 25.4012 164.082 25.5833 164.836 25.7097C166.673 26.0183 169.745 26.2813 171.779 26.3015C172.695 26.3117 173.439 26.4836 173.439 26.686C173.439 26.8832 172.073 27.04 170.408 27.0198C168.743 27.0046 166.496 27.1058 165.423 27.2424C160.408 27.8847 158.105 28.0264 154.861 27.9151C154.001 27.8847 152.24 28.0517 150.949 28.2894C149.659 28.5221 144.553 28.8508 139.609 29.0178C134.583 29.1847 130.267 29.5033 129.831 29.736C129.401 29.9636 128.875 30.1761 128.657 30.2064C127.883 30.3076 125.216 31.0815 124.599 31.39C123.607 31.8806 121.233 32.5837 120.555 32.5837C119.857 32.5837 119.467 33.3728 119.467 34.784C119.467 35.7096 119.563 35.745 121.714 35.6742C124.168 35.5933 128.505 34.7233 129.973 34.0202C130.914 33.5701 138.895 33.4234 141.273 33.8128C142.868 34.0708 143.379 34.5311 142.119 34.5716C141.597 34.5867 140.884 34.6626 140.53 34.7284C140.175 34.7992 138.151 34.9712 136.031 35.1077C133.91 35.2494 131.648 35.5225 131.005 35.7147C130.358 35.9069 128.247 36.5291 126.309 37.0905C124.376 37.652 122.362 38.2842 121.841 38.5017C121.319 38.7142 120.003 39.0581 118.915 39.2655C117.832 39.4729 116.274 39.9888 115.454 40.4137C114.634 40.8386 113.733 41.1876 113.445 41.1876C113.156 41.1876 112.478 41.5366 111.932 41.9665C111.385 42.3965 110.616 42.8112 110.216 42.8821C109.816 42.9579 108.961 43.2311 108.318 43.489C107.676 43.747 106.355 44.2427 105.383 44.5917C104.417 44.9407 103.435 45.3706 103.197 45.5477C102.964 45.7247 102.028 46.1294 101.117 46.448C100.206 46.7667 98.9916 47.3686 98.4147 47.7783C97.8378 48.188 94.1081 50.3225 90.1304 52.5178C86.1527 54.713 82.762 56.7413 82.6052 57.0144C82.4483 57.2876 81.8866 57.6214 81.3602 57.7529C79.9736 58.1019 75.5759 60.7726 74.7915 61.7438C74.4221 62.199 73.5972 62.8262 72.9545 63.1347C72.3118 63.4433 70.7328 64.6572 69.4474 65.8307C68.162 67.0042 66.1934 68.7543 65.0801 69.7204C60.5356 73.6556 56.5326 77.9955 56.5022 79.0071C56.4972 79.2752 56.3352 79.4977 56.148 79.4977C55.6065 79.4977 51.4011 83.8123 51.4011 84.3637C51.4011 84.6368 51.0823 85.2842 50.6926 85.7951C50.3029 86.306 49.6602 87.6059 49.2706 88.6833C48.3242 91.268 46.1279 94.8188 44.0733 97.0899C43.1573 98.1015 42.4134 99.103 42.4134 99.3155C42.4134 99.5279 42.0591 100.024 41.629 100.413C41.1988 100.803 40.8445 101.531 40.8445 102.037C40.8445 102.699 40.6219 102.952 40.05 102.952C39.5996 102.952 39.0936 103.332 38.8759 103.832C38.6685 104.318 38.3395 104.975 38.1472 105.299C36.882 107.439 36.1736 110.287 35.9458 114.176C35.6574 119.062 35.5865 119.548 35.0906 119.963C34.8325 120.175 34.5035 120.883 34.3568 121.526L34.0835 122.699L34.9185 121.834C35.4043 121.364 35.7788 120.853 35.7788 120.706ZM193.606 27.5054C194.213 27.5054 194.583 27.7279 194.583 28.0921C194.583 28.694 194.491 28.7143 193.312 28.4108C192.28 28.1427 192.487 27.5054 193.606 27.5054ZM190.473 27.3638C190.797 27.4851 191.06 27.6571 191.06 27.7431C191.06 27.8342 190.797 27.8949 190.473 27.8949C190.149 27.8949 189.886 27.7229 189.886 27.5155C189.886 27.3081 190.154 27.2424 190.473 27.3638ZM180.109 26.337C180.327 26.337 180.499 26.514 180.499 26.7264C180.499 26.9439 180.322 27.1159 180.109 27.1159C179.896 27.1159 179.719 26.9389 179.719 26.7264C179.719 26.5089 179.896 26.337 180.109 26.337ZM177.958 26.7264C178.09 26.5089 178.277 26.337 178.373 26.337C178.474 26.337 178.545 26.514 178.545 26.7264C178.545 26.9439 178.358 27.1159 178.13 27.1159C177.903 27.1159 177.827 26.9389 177.958 26.7264ZM176.101 26.8579C176.369 26.7517 176.809 26.7517 177.078 26.8579C177.346 26.9642 177.128 27.0552 176.587 27.0552C176.055 27.0552 175.833 26.9642 176.101 26.8579ZM174.436 26.337C174.76 26.337 175.023 26.514 175.023 26.7264C175.023 26.9439 174.76 27.1159 174.436 27.1159C174.112 27.1159 173.849 26.9389 173.849 26.7264C173.849 26.5089 174.117 26.337 174.436 26.337Z" fill="#231F20"/>
<path id="Vector_40" d="M57.6863 71.3189C57.6863 71.1166 58.0405 70.8435 58.4707 70.7069C58.9008 70.5703 59.2551 70.2011 59.2551 69.8875C59.2551 69.5739 59.5182 69.2147 59.8421 69.0883C60.166 68.9618 60.4292 68.6634 60.4292 68.4156C60.4292 68.1677 61.001 67.6012 61.6994 67.151C65.3329 64.8041 67.3572 63.5395 68.1517 63.1248C69.7661 62.2801 69.0171 60.3883 67.0384 60.3125C63.8856 60.2012 56.7551 63.3271 55.7076 65.2795C55.4343 65.7904 55.0649 66.2102 54.8827 66.2102C54.2956 66.2102 54.5436 67.6872 55.1711 67.9249C55.5102 68.0514 55.662 68.3498 55.5203 68.5875C55.3736 68.8202 55.581 69.6143 55.9758 70.3478C56.6337 71.5769 57.6863 72.1737 57.6863 71.3189Z" fill="#231F20"/>
<path id="Vector_41" d="M49.6249 65.8255C50.6978 66.2605 50.7028 66.2605 51.6542 65.7041C53.0004 64.9201 58.0762 60.6005 58.0762 60.2464C58.0762 60.0643 58.7544 59.6091 59.5843 59.2398C60.4143 58.8706 61.5984 58.1017 62.226 57.5352C62.8484 56.9687 64.7259 55.335 66.3909 53.8985C68.0559 52.467 69.4222 51.0305 69.4222 50.7068C69.4222 49.6749 68.6378 48.6077 67.8737 48.6077C67.1146 48.6077 62.2968 51.2783 62.0539 51.8347C61.9831 52.0017 61.143 52.4923 60.1966 52.9273C59.2452 53.3572 58.471 53.8833 58.471 54.0957C58.471 54.3031 58.304 54.4751 58.0914 54.4751C57.8839 54.4751 56.9629 55.0062 56.0368 55.6587C55.1107 56.3112 53.9265 57.1458 53.3951 57.515C52.8637 57.8843 51.72 58.8453 50.8547 59.6495C49.9893 60.4538 49.0581 61.1113 48.7899 61.1164C47.7373 61.1316 48.4913 65.3703 49.6249 65.8255Z" fill="#231F20"/>
<path id="Vector_42" d="M35.6571 99.1789C36.5832 100.105 38.5316 98.1268 40.1156 94.6519C40.3838 94.0601 40.7532 93.5745 40.9354 93.5745C41.1176 93.5745 41.2644 93.2457 41.2644 92.8411C41.2644 92.4364 41.5275 91.8902 41.8514 91.6221C42.1753 91.354 42.4384 90.8785 42.4384 90.5649C42.4384 90.0591 44.1186 87.7476 46.0568 85.5928C46.4364 85.173 46.74 84.6014 46.74 84.3182C46.74 84.0349 46.8766 83.8073 47.0386 83.8073C47.2056 83.8073 48.0406 82.912 48.8958 81.8144C50.2976 80.0188 51.5071 78.7492 53.8047 76.6753C54.8725 75.7092 54.746 75.2085 53.4403 75.2085C52.6306 75.2085 51.7298 75.7598 50.2116 77.1761C49.0527 78.2585 47.7774 79.4421 47.3726 79.8164C46.9677 80.1857 46.1277 81.2833 45.5001 82.2494C44.8777 83.2155 44.2299 84.0096 44.068 84.0096C43.906 84.0096 43.2228 84.5357 42.5498 85.1831C41.8767 85.8305 41.0923 86.5539 40.8038 86.7966C39.9435 87.52 38.896 88.8958 38.4354 89.9023C38.1976 90.4233 37.8636 90.8482 37.6865 90.8482C37.5093 90.8482 37.4689 91.1163 37.5954 91.44C37.7219 91.7637 37.6156 92.2796 37.3676 92.5831C36.7401 93.3418 35.3889 97.1051 35.3889 98.1066C35.3889 98.5466 35.5053 99.0373 35.6571 99.1789Z" fill="#231F20"/>
<path id="Vector_43" d="M218.869 241.216C218.454 241.509 217.852 241.646 217.538 241.529C217.224 241.408 215.934 241.98 214.668 242.794C211.338 244.949 210.691 245.252 208.899 245.49C205.949 245.884 205.503 246.061 205.073 247.007C204.719 247.781 204.8 248.155 205.534 249.187C206.384 250.381 206.516 250.427 208.636 250.275C210.817 250.118 212.573 249.197 214.638 247.139C215.023 246.754 215.463 246.441 215.62 246.441C215.772 246.441 216.647 245.738 217.563 244.878C218.474 244.018 219.476 243.315 219.79 243.315C220.311 243.315 221.571 241.904 221.571 241.317C221.571 240.776 219.597 240.705 218.869 241.216Z" fill="#231F20"/>
<path id="Vector_44" d="M102.999 272.338C102.6 272.232 102.271 271.903 102.271 271.61C102.271 271.312 102.078 271.069 101.841 271.069C101.603 271.069 100.859 270.811 100.176 270.497C99.4975 270.184 97.7111 269.587 96.2081 269.167C94.7 268.747 92.8528 268.09 92.1039 267.7C91.3498 267.311 90.4187 266.946 90.0341 266.881C89.2851 266.759 86.1677 265.257 85.8438 264.857C85.7375 264.726 85.0341 264.281 84.2801 263.876C83.526 263.471 82.4734 262.758 81.9319 262.293C81.3955 261.828 80.1202 261.054 79.103 260.563C78.0808 260.077 76.9826 259.299 76.6587 258.833C76.3348 258.368 75.3986 257.457 74.5838 256.805C72.9442 255.495 69.26 251.494 68.0606 249.724C67.6355 249.096 66.5374 247.842 65.6163 246.931C64.6953 246.021 63.9362 245.141 63.9261 244.979C63.9159 244.812 63.3896 244.069 62.752 243.325C62.1144 242.581 61.5931 241.727 61.5931 241.428C61.5931 240.705 60.4342 238.677 59.3259 237.453C58.835 236.911 57.914 235.571 57.2865 234.483C56.659 233.396 55.7835 232.177 55.3482 231.782C54.913 231.388 54.5537 230.842 54.5537 230.563C54.5537 230.29 54.3159 229.83 54.0274 229.542C53.7389 229.253 53.0305 228.272 52.4586 227.362C51.8817 226.451 51.2238 225.708 50.9859 225.708C50.7481 225.708 50.2167 225.273 49.8018 224.742C48.5416 223.138 43.9415 222.304 43.4506 223.588C43.0154 224.721 43.2026 225.166 44.8727 226.992C48.0912 230.498 48.6277 231.201 49.5032 233.037C49.989 234.059 50.5001 234.979 50.6317 235.09C51.3402 235.657 55.0142 241.615 55.08 242.303C55.2065 243.583 56.497 245.94 57.4181 246.577C60.3178 248.58 64.002 252.855 64.4726 254.751C64.7661 255.945 66.5526 258.155 67.2256 258.16C67.4584 258.16 69.1284 259.395 70.93 260.897C72.7367 262.399 74.3257 263.628 74.4624 263.628C74.599 263.628 75.1506 263.967 75.6769 264.382C78.8803 266.896 81.102 268.393 82.2254 268.798C82.9542 269.061 83.4299 269.465 83.3236 269.739C83.02 270.528 84.1434 271.145 85.3833 270.872C86.4612 270.634 91.0259 271.559 91.8964 272.192C92.1089 272.348 92.7466 272.5 93.3083 272.541C94.9176 272.637 98.4702 273.648 100.353 274.534C101.744 275.191 103.592 275.343 104.082 274.837C104.442 274.488 103.566 272.485 102.999 272.338Z" fill="#231F20"/>
<path id="Vector_45" d="M246.515 92.3401C246.161 92.6892 246.166 92.9067 246.525 93.2658C246.783 93.5237 246.996 94.0447 246.996 94.4241C246.996 94.8034 247.522 95.7139 248.17 96.4524C248.818 97.1858 249.344 97.985 249.344 98.2227C249.344 98.4605 249.521 98.6577 249.734 98.6577C249.946 98.6577 250.123 98.8803 250.123 99.1484C250.123 99.4164 250.477 99.8616 250.908 100.13C251.338 100.398 251.687 100.782 251.687 100.979C251.687 101.177 252.39 102.401 253.251 103.696C254.111 104.99 254.814 106.361 254.814 106.746C254.814 107.641 257.198 112.734 257.618 112.734C257.987 112.734 259.156 115.385 259.065 116.017C259.03 116.255 259.273 117.064 259.602 117.818C259.931 118.572 260.325 119.76 260.477 120.458C260.624 121.156 260.913 121.728 261.11 121.728C261.307 121.728 261.469 122.168 261.469 122.709C261.469 123.25 261.626 123.999 261.813 124.368C262.618 125.961 263.342 127.878 263.615 129.153C263.777 129.907 264.045 130.696 264.212 130.908C264.86 131.738 265.902 138.076 265.831 140.681C265.786 142.188 265.993 144.216 266.287 145.197C266.925 147.312 266.849 164.646 266.181 169.193C265.958 170.711 265.776 172.309 265.771 172.739C265.761 174.413 264.905 180.746 264.182 184.484C263.767 186.644 263.423 188.763 263.423 189.188C263.423 189.618 263.068 190.655 262.638 191.499C262.208 192.344 261.859 193.705 261.859 194.524C261.859 195.344 261.596 196.649 261.272 197.422C260.948 198.196 260.685 199.132 260.685 199.506C260.685 199.881 260.356 200.609 259.956 201.12C259.556 201.631 258.924 203.108 258.554 204.398C258.185 205.687 257.522 207.357 257.077 208.11C256.631 208.864 255.741 210.447 255.098 211.631C254.455 212.814 253.337 214.403 252.613 215.166C251.889 215.93 251.297 216.755 251.297 217.002C251.297 217.25 250.417 218.51 249.344 219.805C248.271 221.094 247.385 222.303 247.385 222.491C247.385 222.678 246.813 223.361 246.115 224.013C244.258 225.743 241.13 229.496 241.13 229.987C241.13 230.573 235.862 235.5 234.238 236.436C233.509 236.856 232.917 237.346 232.917 237.528C232.917 237.989 231.338 240.189 230.24 241.266C229.567 241.924 229.385 242.419 229.562 243.123C229.693 243.649 229.946 244.084 230.128 244.084C230.705 244.084 232.821 242.91 233.317 242.318C233.58 242 233.97 241.742 234.177 241.742C234.384 241.742 235.022 241.413 235.594 241.008C236.166 240.604 237.644 239.987 238.883 239.627C240.118 239.268 241.135 238.854 241.135 238.697C241.135 238.54 241.621 238.14 242.213 237.801C242.805 237.468 243.635 236.496 244.071 235.652C244.809 234.2 246.464 232.45 251.454 227.857C252.623 226.78 254.076 224.979 254.693 223.851C255.305 222.723 255.902 221.798 256.014 221.798C256.13 221.798 256.748 220.786 257.38 219.547C258.018 218.313 258.645 217.21 258.777 217.104C259.01 216.911 261.586 212.283 262.421 210.558C262.653 210.078 262.972 209.678 263.129 209.678C263.554 209.673 264.996 206.522 264.996 205.596C264.996 204.347 266.899 197.493 267.588 196.259C267.927 195.652 268.114 194.701 268.008 194.145C267.83 193.214 268.412 190.038 269.283 187.2C269.738 185.713 270.401 180.705 270.68 176.644C270.796 174.924 271.095 172.375 271.337 170.974C271.58 169.578 271.758 167.463 271.742 166.285C271.722 165.101 271.641 159.471 271.575 153.776C271.479 145.789 271.322 143.194 270.902 142.451C270.599 141.92 270.376 140.888 270.406 140.16C270.432 139.431 270.3 138.541 270.108 138.187C269.915 137.833 269.662 136.487 269.541 135.203C269.42 133.918 269.227 132.426 269.111 131.89C268.994 131.353 268.797 129.947 268.665 128.764C268.524 127.484 267.815 125.344 266.925 123.483C266.1 121.758 265.169 119.386 264.86 118.207C263.974 114.849 261.828 109.568 260.887 108.44C260.619 108.116 260.174 107.15 259.9 106.29C259.627 105.431 258.65 103.761 257.734 102.578C256.818 101.394 255.654 99.6896 255.153 98.7842C254.379 97.3932 253.261 96.2956 249.46 93.1899C248.322 92.2542 246.98 91.8697 246.515 92.3401Z" fill="#231F20"/>
<path id="Vector_46" d="M239.208 215.242C239.688 214.231 240.564 212.698 241.156 211.838C242.3 210.169 243.96 207.615 245.235 205.566C245.665 204.873 246.495 203.599 247.077 202.729C247.659 201.864 248.246 200.655 248.378 200.043C248.625 198.91 248.858 198.257 249.754 196.199C250.037 195.551 250.285 194.939 250.316 194.828C250.341 194.722 250.508 194.018 250.685 193.265C250.857 192.511 251.196 191.651 251.439 191.353C251.677 191.054 251.885 190.614 251.9 190.377C251.915 190.139 252.315 189.092 252.785 188.06C253.256 187.023 253.722 185.794 253.818 185.324C253.914 184.853 254.187 183.589 254.43 182.516C255.134 179.38 255.599 176.447 255.812 173.72C255.923 172.324 256.176 170.21 256.383 169.031C256.971 165.607 256.971 161.621 256.383 158.733C255.953 156.609 255.528 155.703 254.319 154.332C253.484 153.382 252.649 152.608 252.467 152.608C251.783 152.608 251.692 154.13 252.208 156.942C252.861 160.508 252.78 163.574 251.925 167.661C251.566 169.38 251.024 172.284 250.726 174.11C249.896 179.203 249.359 181.505 248.362 184.277C245.184 193.093 244.572 194.757 244.086 195.809C243.793 196.456 243.281 197.63 242.958 198.419C242.401 199.77 240.594 202.622 237.431 207.144C236.677 208.222 235.862 209.582 235.615 210.174C235.367 210.766 235.012 211.251 234.82 211.251C234.633 211.251 234.476 211.469 234.466 211.742C234.451 212.683 224.026 222.774 222.391 223.431C222.047 223.568 221.242 224.231 220.61 224.898C219.977 225.566 219.304 226.112 219.112 226.112C218.919 226.112 217.766 226.896 216.546 227.852C215.088 228.995 213.13 230.012 210.817 230.826C207.249 232.081 202.239 234.579 198.687 236.871C197.609 237.564 196.248 238.247 195.656 238.383C195.063 238.52 194.578 238.808 194.578 239.021C194.578 239.233 194.325 239.405 194.011 239.405C193.697 239.405 193.302 239.627 193.13 239.901C192.958 240.174 192.29 240.629 191.642 240.912C189.664 241.782 187.179 243.482 187.159 243.972C187.149 244.23 187.533 244.711 188.014 245.05C189.067 245.788 188.889 245.788 190.317 245.05C190.964 244.716 191.789 244.483 192.154 244.529C192.822 244.615 196.835 243.563 198.292 242.915C198.722 242.723 201.101 241.661 203.57 240.558C209.491 237.908 211.03 237.296 214.481 236.223C216.07 235.728 217.568 235.141 217.806 234.913C218.687 234.079 223.509 230.412 223.722 230.412C224.096 230.412 225.61 229.107 231.232 223.963C236.601 219.051 238.266 217.225 239.208 215.242Z" fill="#231F20"/>
<path id="Vector_47" d="M130.596 245.1C130.206 243.78 129.255 243.113 125.788 241.712C123.89 240.948 121.846 239.779 120.935 238.95C120.069 238.161 118.905 237.276 118.349 236.992C117.792 236.704 117.246 236.375 117.139 236.259C116.567 235.637 114.24 234.853 113.43 235.004C111.598 235.353 112.919 238.226 115.778 240.118C115.996 240.265 116.664 240.978 117.261 241.701C118.41 243.102 121.324 245.247 122.094 245.257C122.347 245.262 122.605 245.394 122.681 245.556C122.752 245.718 123.516 246.208 124.376 246.653C127.144 248.08 131.183 247.073 130.596 245.1Z" fill="#231F20"/>
<path id="Vector_48" d="M195.276 260.072C194.132 261.069 193.702 261.19 191.222 261.2C189.228 261.21 187.968 261.443 186.749 262.035C185.818 262.485 184.821 262.854 184.537 262.854C184.254 262.854 184.026 263.031 184.026 263.244C184.026 263.456 183.682 263.633 183.267 263.633C182.852 263.633 182.417 263.785 182.3 263.967C182.184 264.149 181.384 264.26 180.519 264.215C179.654 264.164 178.945 264.286 178.945 264.483C178.945 264.675 178.373 264.786 177.675 264.731C175.97 264.584 171.299 265.115 169.365 265.677C167.083 266.329 154.533 266.83 153.455 266.304C153.095 266.127 149.183 265.894 144.765 265.788C137.24 265.606 136.598 265.646 134.664 266.42C133.531 266.875 132.336 267.275 132.013 267.3C131.087 267.386 130.211 268.049 129.675 269.071C129.234 269.905 129.285 270.092 130.105 270.735C130.914 271.362 131.739 271.453 136.506 271.418C139.518 271.392 143.293 271.574 144.892 271.817C146.496 272.06 150.008 272.353 152.706 272.47C155.403 272.586 157.701 272.773 157.812 272.879V272.874C157.923 272.991 158.809 272.955 159.775 272.798C160.747 272.647 161.977 272.485 162.518 272.439C165.332 272.202 167.974 271.726 169.431 271.19C170.332 270.861 171.299 270.669 171.582 270.765C171.865 270.861 172.751 270.603 173.545 270.194C174.345 269.779 176.005 269.394 177.26 269.329C180.013 269.187 185.595 267.983 185.595 267.533C185.595 267.356 185.934 267.098 186.349 266.966C186.764 266.835 187.776 266.268 188.596 265.712C189.628 265.009 190.721 264.66 192.128 264.579C194.117 264.463 196.157 263.547 196.157 262.763C196.157 262.551 196.906 261.701 197.816 260.887C199.102 259.738 199.375 259.293 199.016 258.929C198.363 258.261 196.794 258.742 195.276 260.072Z" fill="#231F20"/>
<path id="Vector_49" d="M79.5891 252.692C81.0719 252.692 81.5425 252.242 81.5425 250.831C81.5425 249.698 81.2287 249.147 79.837 247.842C76.7045 244.898 72.2511 238.115 72.1803 236.178C72.1651 235.798 71.9778 235.495 71.7653 235.495C71.5477 235.495 71.3756 235.303 71.3756 235.07C71.3756 234.589 68.9617 229.536 68.5872 229.238C68.4505 229.132 68.2279 228.505 68.0811 227.847C67.7471 226.309 65.8494 222.49 64.9941 221.636C64.6298 221.271 64.3312 220.654 64.3312 220.26C64.3312 219.38 63.4152 218.995 62.1298 219.314C61.2796 219.526 61.1936 219.703 61.4314 220.776C61.5782 221.443 61.983 222.43 62.3322 222.961C63.066 224.084 63.8403 226.067 64.3717 228.206C64.5791 229.036 64.9992 230.199 65.3028 230.791C65.6115 231.383 66.2441 232.991 66.7147 234.367C67.7977 237.538 70.9404 244.003 72.8483 246.972C73.6985 248.292 75.2774 249.981 76.5982 250.978C77.8482 251.919 79.1943 252.692 79.5891 252.692Z" fill="#231F20"/>
<path id="Vector_50" d="M121.481 270.239C120.975 269.83 119.599 269.46 118.01 269.309C113.212 268.848 106.901 266.38 104.407 263.998C103.253 262.895 101.896 262.576 100.545 263.097C99.4521 263.517 99.8317 265.039 101.304 266.162C102.063 266.739 103.076 267.599 103.551 268.064C104.032 268.535 105.039 269.233 105.793 269.612C106.547 269.996 107.605 270.563 108.141 270.882C110.778 272.419 113.091 273.148 116.087 273.385C118.435 273.573 119.452 273.507 119.907 273.138C120.246 272.859 120.687 272.632 120.889 272.632C121.092 272.632 121.496 272.247 121.79 271.777C122.261 271.013 122.225 270.846 121.481 270.239Z" fill="#231F20"/>
<path id="Vector_51" d="M114.791 254.605C114.791 254.412 114.599 254.256 114.366 254.256C114.133 254.256 113.49 253.902 112.944 253.472C112.397 253.042 111.618 252.688 111.218 252.688C110.818 252.688 110.489 252.546 110.489 252.374C110.489 252.202 109.619 251.747 108.556 251.367C107.493 250.983 106.416 250.422 106.162 250.118C105.909 249.815 105.459 249.562 105.16 249.562C104.867 249.562 104.624 249.375 104.624 249.147C104.624 248.919 101.456 245.586 97.5847 241.742C93.7133 237.898 90.5453 234.463 90.5453 234.114C90.5453 233.76 90.0291 232.956 89.3965 232.324C88.7639 231.691 88.1415 230.872 88.0149 230.498C87.8884 230.123 86.8459 228.793 85.6972 227.539C84.5281 226.264 82.8075 223.684 81.7802 221.676C80.7731 219.704 79.3966 217.124 78.7236 215.94C76.4817 212 74.4979 208.328 74.0222 207.24C73.7641 206.649 73.4149 206.163 73.2479 206.163C73.0809 206.163 72.9443 205.981 72.9443 205.753C72.9443 205.106 70.6518 200.377 70.2014 200.098C69.7257 199.805 67.9798 196.441 67.2814 194.459C66.6691 192.734 65.2926 189.623 64.3007 187.731C63.8908 186.947 63.5568 186.022 63.5568 185.663C63.5568 185.308 63.2987 184.621 62.9798 184.14C62.661 183.654 62.3422 182.916 62.2562 182.491C62.0335 181.313 61.2997 179.674 60.8797 179.416C60.6722 179.289 60.1104 177.468 59.6297 175.369C58.3291 169.699 57.6813 167.509 57.1499 166.963C56.8868 166.695 56.5022 165.592 56.2947 164.52L55.9253 162.567L54.235 162.446C51.735 162.264 51.401 162.724 51.5933 166.093C51.6844 167.656 52.0336 169.477 52.3727 170.134C52.7117 170.792 53.071 171.965 53.1723 172.749C53.2735 173.528 53.5265 174.727 53.7441 175.41C54.068 176.447 54.5589 178.374 55.5154 182.375C55.6014 182.729 56.0973 183.958 56.6186 185.111C57.1398 186.264 57.7825 187.908 58.0457 188.768C58.739 191.049 59.5689 192.992 60.7278 195.025C60.9707 195.455 61.9171 197.392 62.823 199.324C64.2045 202.278 68.1164 209.542 69.4423 211.641C69.6447 211.965 70.0293 212.668 70.2874 213.204C70.5455 213.74 71.2034 214.883 71.7398 215.743C72.2813 216.603 72.919 217.66 73.1619 218.09C73.4048 218.52 74.1032 219.754 74.7155 220.827C75.3279 221.904 76.2489 223.573 76.755 224.539C79.007 228.828 80.9756 231.53 83.3996 233.664C84.098 234.281 84.6698 234.974 84.6698 235.207C84.6698 235.439 85.3733 236.466 86.2336 237.483C87.0939 238.505 87.7973 239.461 87.7973 239.612C87.7973 240.017 92.1242 244.033 92.8479 244.306C93.1869 244.433 95.1201 246.355 97.1444 248.57C99.2294 250.857 101.517 252.961 102.423 253.426C103.303 253.876 104.467 254.493 105.004 254.797C105.54 255.095 106.775 255.642 107.741 256.011C110.191 256.941 110.869 257.26 112.433 258.221C113.187 258.681 114.857 259.263 116.147 259.506C119.72 260.184 122.073 260.057 122.741 259.147C123.045 258.727 123.222 258.186 123.131 257.948C122.964 257.513 119.057 256.112 118.43 256.264C117.898 256.395 114.791 254.979 114.791 254.605Z" fill="#231F20"/>
<path id="Vector_52" d="M115.15 72.983C115.702 72.6239 117.417 71.066 118.956 69.5233C121.851 66.6199 122.787 66.2102 126.481 66.2102C127.048 66.2102 128.212 65.8207 129.067 65.3402C130.342 64.627 131.228 64.4702 133.951 64.4803C135.778 64.4854 138.612 64.7535 140.246 65.0721C143.611 65.7297 145.251 65.4768 148.617 63.7823C149.694 63.2411 151.238 62.6746 152.058 62.5279C153.444 62.275 153.662 62.3762 155.347 64.0403C156.754 65.4313 157.437 65.8207 158.444 65.8207C160.413 65.8207 160.803 64.713 159.375 63.1501C158.753 62.4723 158.014 61.5972 157.736 61.2128C156.977 60.1708 154.649 58.8709 153.313 58.7495C152.058 58.6332 149.365 59.3868 148.46 60.1101C148.156 60.3479 147.574 60.4945 147.164 60.4187C146.754 60.3479 146.167 60.5047 145.853 60.7576C145.545 61.0155 145.292 61.0965 145.292 60.9346C145.292 60.7727 145.028 60.8587 144.71 61.1268C144.042 61.6781 142.559 61.4758 138.981 60.3327C137.103 59.7358 135.899 59.6144 133.283 59.7712C131.461 59.8775 129.604 60.1658 129.158 60.4035C128.713 60.6412 126.689 61.0661 124.659 61.3494C121.623 61.7743 120.636 62.0929 119.057 63.1602C118.005 63.8734 117.043 64.7585 116.916 65.1278C116.795 65.497 115.651 66.8577 114.376 68.1525C111.911 70.6512 111.82 71.0711 113.344 72.7655C114.108 73.6001 114.189 73.6102 115.15 72.983Z" fill="#231F20"/>
</g>
</g>
</svg>
