<svg viewBox="0 0 105 140">
<path fill-rule="evenodd" clip-rule="evenodd" d="M70.0123 44.3743C70.0152 43.82 69.5651 43.3671 69.0112 43.3886C55.0675 43.9308 43.6678 55.6793 43.6678 69.4746C43.6678 83.5385 54.8139 95.0104 68.7501 95.5344C69.3 95.5551 69.7485 95.1086 69.7514 94.5583L70.0123 44.3743ZM73.821 136.572V104.127C81.267 103.223 88.477 99.9126 94.1948 94.1948C107.777 80.6123 107.777 58.6086 94.1948 45.026C88.477 39.3083 81.267 35.9975 73.821 35.0937V2.64859C72.1911 -0.882865 67.0297 -0.882865 65.3999 2.64859L52.6322 28.4554L25.1956 19.2192C21.6641 18.1327 18.1326 21.6641 19.2192 25.1956L28.4554 52.6322L2.64859 65.3999C-0.882865 67.0297 -0.882865 72.1911 2.64859 73.821L28.4554 86.5886L19.2192 114.026C18.1326 117.557 21.6641 121.088 25.1956 120.001L52.6322 110.765L65.3999 136.572C67.0297 140.104 72.1911 140.104 73.821 136.572ZM73.821 35.0937V104.127C63.5791 105.37 52.8908 102.06 45.026 94.1948C31.4436 80.6123 31.4436 58.6086 45.026 45.026C52.8908 37.1613 63.5791 33.8505 73.821 35.0937ZM84.6481 44.4141C84.6481 45.857 83.4784 47.0267 82.0355 47.0267C80.5926 47.0267 79.4229 45.857 79.4229 44.4141C79.4229 42.9712 80.5926 41.8015 82.0355 41.8015C83.4784 41.8015 84.6481 42.9712 84.6481 44.4141ZM78.9004 60.6122C79.7661 60.6122 80.4679 59.9104 80.4679 59.0446C80.4679 58.1789 79.7661 57.4771 78.9004 57.4771C78.0346 57.4771 77.3328 58.1789 77.3328 59.0446C77.3328 59.9104 78.0346 60.6122 78.9004 60.6122ZM83.603 90.3958C83.603 91.2615 82.9012 91.9633 82.0355 91.9633C81.1697 91.9633 80.4679 91.2615 80.4679 90.3958C80.4679 89.5301 81.1697 88.8282 82.0355 88.8282C82.9012 88.8282 83.603 89.5301 83.603 90.3958ZM91.4408 77.3328C94.038 77.3328 96.1435 75.2273 96.1435 72.6301C96.1435 70.0329 94.038 67.9275 91.4408 67.9275C88.8436 67.9275 86.7382 70.0329 86.7382 72.6301C86.7382 75.2273 88.8436 77.3328 91.4408 77.3328Z" />
</svg>
